<svg width="128" height="128" viewBox="0 0 128 128" fill="none" xmlns="http://www.w3.org/2000/svg">
<g clip-path="url(#clip0_3_12)">
<path d="M118.118 56.4709C117.86 57.5019 117.847 58.5124 117.705 59.5045C117.277 62.489 116.768 65.4567 116.06 68.3883C115.524 70.6098 115.005 72.8325 114.134 74.9606C113.212 77.2135 111.565 78.8688 109.778 80.4056C105.63 83.9736 100.775 86.258 95.6647 88.0587C92.857 89.048 90.0313 89.9905 87.1079 90.5754C84.4012 91.117 81.6755 91.2705 78.9477 90.6691C77.4246 90.3333 76.0657 89.611 74.7198 88.8663C72.3326 87.5456 70.1583 85.8994 67.9064 84.3719C67.698 84.2305 67.4843 84.0969 67.2189 83.9244C66.8664 84.7184 66.8507 85.507 66.7572 86.2777C66.6248 87.3689 67.0712 88.3697 67.2682 89.408C67.7347 91.8668 68.0707 94.3401 68.2984 96.8334C68.4479 98.4706 68.4948 100.112 68.3857 101.738C68.1383 105.422 67.1684 108.882 64.7534 111.796C63.2999 113.55 61.3925 114.395 59.1469 114.594C57.1097 114.774 55.0349 114.674 53.0482 115.256C50.1887 116.094 47.4111 117.171 44.6556 118.297C41.7361 119.49 38.8288 120.715 35.9376 121.975C34.5349 122.587 33.034 122.686 31.5691 122.957C28.5675 123.513 25.5513 123.99 22.4754 124.36C21.6817 124.382 20.9292 124.382 20.0868 124.355C19.2374 124.123 18.4743 123.93 17.7193 123.709C16.605 123.383 15.8084 122.723 15.4914 121.557C15.3573 121.064 15.1649 120.587 15.0148 120.097C14.4876 118.38 14.2395 116.632 14.6232 114.853C14.894 113.598 15.4257 112.423 15.8758 111.225C16.4017 109.826 16.6215 108.422 16.1549 106.95C15.8809 106.086 15.5681 105.237 15.2816 104.379C14.8727 103.154 14.2132 102.154 13.1055 101.466C12.5849 101.142 12.4026 100.678 12.4567 100.058C12.6794 97.5074 12.8253 94.9491 13.0962 92.404C13.2302 91.1453 13.3905 89.8716 14.075 88.7281C14.6893 87.7016 14.7503 86.5616 14.4534 85.4083C14.3552 85.0272 14.2443 84.6479 14.1128 84.2772C13.9073 83.6978 14.1335 83.32 14.6467 83.0755C15.1272 82.8467 15.6257 82.6547 16.1009 82.4161C17.2252 81.8514 17.6314 81.033 17.484 79.8165C17.3039 78.3305 16.6387 77.0375 15.939 75.7548C14.875 73.8041 13.4473 72.0525 12.7341 69.9105C12.5843 69.4609 12.3552 69.1189 11.8922 68.9172C11.5244 68.757 11.2942 68.4217 11.1421 68.0384C10.8086 67.198 10.4605 66.3634 10.1184 65.5265C10.1184 65.0105 10.1184 64.4946 10.1343 63.8799C10.1206 62.8818 10.6304 62.3143 11.2807 61.7729C12.189 61.0167 13.0273 60.1769 13.9079 59.3866C14.3288 59.0088 14.5989 58.5428 14.8596 58.0495C15.6858 56.4862 15.7693 54.9705 14.8255 53.4014C14.3098 52.5441 13.9534 51.5909 13.5278 50.6797C13.4026 50.4117 13.2878 50.1419 13.2784 49.8359C13.2528 49.0083 13.2232 48.1807 13.1824 47.3538C13.1644 46.9896 13.2274 46.6495 13.3812 46.3207C14.2247 44.5167 14.9778 42.6638 15.9273 40.9177C17.5428 37.9469 18.6983 34.8345 19.3666 31.521C19.7815 29.4639 20.5052 27.5014 21.5827 25.6875C24.7636 20.3328 28.9412 15.8972 34.0289 12.3243C38.993 8.83819 44.5106 6.55103 50.3426 4.99289C54.7002 3.82867 59.1335 3.17125 63.6556 3.19786C63.9294 3.19947 64.2097 3.2332 64.4737 3.11842C69.213 3.11842 73.9523 3.11842 78.7894 3.13796C80.0037 3.27894 81.1082 3.47114 82.1906 3.77109C86.3989 4.93731 90.3292 6.72929 94.0345 9.03206C98.8076 11.9983 102.926 15.6788 106.323 20.1665C108.795 23.4318 110.888 26.9297 112.772 30.5547C114.566 34.0041 116.112 37.5614 117.142 41.3205C117.521 42.7035 117.796 44.1148 118.118 45.5133C118.118 49.1473 118.118 52.7814 118.118 56.4709ZM20.8939 74.4747C21.3724 74.3984 21.5625 73.887 22.0078 73.7051C22.5141 74.3279 22.9124 75.0415 23.6822 75.3567C24.5754 75.7223 25.1905 76.3539 25.7233 77.1604C26.6765 78.6035 27.6055 80.0943 29.2131 80.9497C29.84 81.2832 30.4575 81.6359 31.0663 82.0015C32.3186 82.7536 33.4988 82.4818 34.6001 81.7093C35.3898 81.1554 36.0954 80.4831 36.9209 79.9739C37.3252 79.7245 37.7418 79.5189 38.2332 79.4725C41.4684 79.1673 44.5727 78.4782 47.2904 76.5399C48.9159 75.3805 50.7733 75.1519 52.719 75.4032C54.5005 75.6333 56.289 75.8868 57.9977 76.4163C59.7586 76.9619 61.305 76.7955 62.7992 75.7264C63.8074 75.005 64.9673 74.982 66.1528 75.1493C67.2639 75.3062 68.3812 75.5396 69.4941 75.5306C70.7478 75.5204 72.0045 75.3098 73.2509 75.1255C74.4717 74.9449 75.6828 74.9149 76.9042 75.0831C77.3591 75.1457 77.658 75.359 77.8411 75.7851C78.1756 76.5639 78.5595 77.322 78.8778 78.107C79.0662 78.5714 79.3626 78.8425 79.84 78.9697C80.5305 79.1538 81.2129 79.3681 81.9184 79.5753C81.7432 79.9292 81.4174 79.9614 81.1528 80.0311C80.4845 80.2071 80.2852 80.6428 80.2242 81.2888C80.1313 82.2735 80.0969 83.2556 80.1007 84.2423C80.1015 84.4411 80.1701 84.6795 79.9212 84.8239C79.7037 84.6347 79.6752 84.3661 79.6419 84.1248C79.4823 82.9694 79.1888 81.8454 78.9148 80.7146C78.778 80.1502 78.4812 79.7594 78.0072 79.4658C76.882 78.7686 75.7209 78.14 74.507 77.6097C74.1543 77.4556 73.8046 77.408 73.414 77.4599C72.9718 77.5187 72.5239 77.6772 72.0694 77.5124C71.1901 77.1937 70.4081 77.6154 69.6048 77.8486C69.3891 77.9112 69.365 78.1374 69.3278 78.3357C69.1827 79.1106 69.0326 79.8845 68.8817 80.6583C68.8467 80.8378 68.884 81.067 68.6178 81.1062C68.4312 81.0059 68.4738 80.8322 68.4511 80.6833C68.3089 79.7489 68.1806 78.8122 68.0205 77.8809C67.8764 77.0432 67.3158 76.4845 66.5644 76.2407C65.5911 75.9251 64.6107 76.0847 63.6732 76.4888C63.764 76.877 63.9662 77.0755 64.1118 77.3062C64.5004 77.9219 64.9712 78.5089 64.9518 79.29C64.9224 80.4739 64.845 81.666 64.5554 82.8085C64.1388 84.4515 63.6748 86.0822 63.3119 87.7395C62.8662 89.7753 62.838 91.7918 63.3801 93.8241C63.8481 95.5785 64.4747 97.2811 64.9739 99.0242C65.5346 100.982 65.8019 102.948 65.3455 104.977C64.8051 107.379 63.8273 109.547 62.0282 111.266C60.9573 112.288 59.6709 112.883 58.1493 112.575C56.8965 112.321 55.8049 111.658 54.7192 111.009C54.5957 110.936 54.4217 110.875 54.4769 110.562C54.9014 110.755 55.3086 110.927 55.7048 111.121C56.6715 111.596 57.6921 111.926 58.7593 111.992C59.9961 112.068 60.8796 111.369 61.5913 110.433C62.4835 109.26 63.0731 107.917 63.6584 106.581C64.6057 104.42 64.9807 102.183 64.4812 99.8257C64.1241 98.1408 63.5253 96.5334 63.0404 94.8897C62.4233 92.7977 61.9929 90.7151 62.498 88.4947C62.9189 86.6444 63.4349 84.8253 64.0153 83.0287C64.5685 81.316 64.212 79.6731 63.9233 78.0088C63.8479 77.5741 63.0701 77.2131 62.811 77.4643C62.4643 77.8004 62.0803 78.1098 61.9473 78.6325C61.1634 81.7138 60 84.6729 58.9697 87.6733C58.2446 89.785 57.9251 91.9085 58.1906 94.127C58.2797 94.8718 58.2858 95.6265 58.3314 96.4034C58.0288 96.3348 57.9983 96.1441 57.9567 95.98C57.7193 95.0444 57.5026 94.1033 57.2573 93.1698C56.742 91.2086 56.91 89.3146 57.7194 87.4551C58.3011 86.1186 58.9073 84.7872 59.2394 83.3562C59.4556 82.4245 59.6738 81.4932 59.9106 80.4781C59.6894 80.5485 59.5746 80.5715 59.4717 80.6199C58.3789 81.1337 57.2255 81.4714 56.0759 81.8279C55.1785 82.1062 54.4108 82.0095 53.6322 81.4369C52.1228 80.327 50.5851 79.2511 49.0806 78.1374C47.9432 77.2955 46.9568 77.3965 45.873 78.071C45.1351 78.5303 44.3766 78.945 43.5626 79.2624C42.5348 79.6632 42.2385 80.3154 42.4018 81.4131C42.622 82.892 43.4245 84.0774 44.1847 85.3036C45.3824 87.2356 46.2421 89.2838 46.1797 91.6269C46.1256 93.6582 46.1668 95.6893 46.2318 97.7211C46.2572 98.516 46.2595 99.3726 45.7486 100.057C45.3378 100.607 44.8458 101.101 44.3584 101.589C44.0467 101.9 43.6828 102.12 43.1876 101.937C42.8006 101.794 42.5236 101.944 42.3305 102.335C42.0176 102.968 41.7402 103.631 41.2081 104.13C39.7126 105.533 38.9107 107.378 38.1064 109.19C37.3317 110.936 36.7447 112.764 36.0607 114.55C35.9756 114.773 35.9799 115.095 35.5894 115.194C35.6387 114.418 35.941 113.769 36.1394 113.1C36.6531 111.367 36.9349 109.56 37.8867 107.968C38.4634 107.003 38.9635 106.005 39.756 105.176C40.2647 104.643 40.7149 104.011 40.4505 103.159C39.9005 103.238 39.3807 103.357 38.8569 103.378C37.6566 103.427 36.6088 103.733 35.7704 104.683C35.1904 105.34 34.4065 105.565 33.5061 105.369C32.7374 105.201 31.9442 105.146 31.1758 104.978C30.6286 104.858 30.1356 104.852 29.6411 105.146C28.6229 105.752 27.5976 105.771 26.582 105.126C26.5489 105.105 26.5095 105.094 26.4759 105.074C26.0595 104.821 25.7359 104.879 25.4015 105.269C24.7563 106.019 23.9027 106.359 22.9574 106.015C22.2338 105.752 21.8166 105.87 21.3882 106.514C20.9337 107.198 20.307 107.262 19.8739 106.667C19.3957 106.009 18.829 105.713 18.0146 105.758C18.5007 107.057 18.9863 108.365 19.4817 109.669C19.575 109.915 19.6487 110.143 19.5543 110.411C18.9898 112.01 18.4359 113.613 17.8724 115.212C17.8191 115.364 17.8134 115.572 17.5082 115.603C17.6574 113.43 18.6682 111.345 18.0427 108.997C17.8588 110.701 17.2453 112.135 16.6813 113.585C16.0962 115.088 15.8488 116.627 16.2133 118.223C16.4325 119.183 16.6879 120.132 17.0059 121.068C17.1983 121.634 17.5486 121.96 18.076 122.155C19.7958 122.793 21.5549 122.954 23.3676 122.653C26.2054 122.181 29.0485 121.741 31.8873 121.275C32.9349 121.103 34.0242 121.048 35.0017 120.625C39.1658 118.822 43.3231 117.004 47.5814 115.432C49.8361 114.6 52.0676 113.651 54.47 113.33C55.9901 113.127 57.5335 113.1 59.0654 112.981C61.0408 112.826 62.6597 112.006 63.8465 110.389C65.7801 107.754 66.6419 104.743 66.7842 101.536C66.9668 97.4168 66.4309 93.3513 65.5907 89.3245C65.3452 88.148 65.0036 86.9874 65.1809 85.7615C65.3334 84.7067 65.5372 83.6656 65.8498 82.6442C66.1266 81.7398 66.5968 81.5449 67.3728 82.0775C69.0973 83.2611 70.7823 84.5057 72.543 85.6323C74.7396 87.0378 76.8391 88.6675 79.5858 88.9391C81.0798 89.0868 82.5528 89.3487 83.9896 88.62C85.5737 87.8164 87.1736 87.0462 88.6608 86.0664C88.9769 85.8581 89.296 85.6391 89.4907 85.3179C90.9868 82.8501 92.8652 80.6142 93.7921 77.8029C94.6382 75.2364 95.5881 72.7117 95.748 69.9736C95.7711 69.5785 95.6657 69.3419 95.4179 69.0969C94.4073 68.0979 93.3891 67.1061 92.3999 66.0862C92.0991 65.776 91.8013 65.7002 91.3994 65.7972C90.4413 66.0285 89.4816 66.2571 88.5147 66.447C87.9268 66.5625 87.3552 66.7864 86.7607 66.8035C86.6277 66.5304 86.798 66.3841 86.895 66.2242C87.2532 65.6339 87.6022 65.0367 87.9885 64.4651C88.2072 64.1416 88.2114 63.8787 87.9976 63.5518C87.6523 63.024 87.3512 62.4674 87.0257 61.9264C86.9007 61.7186 86.8134 61.5181 86.8641 61.2592C86.9702 60.7186 87.0763 60.1754 87.1322 59.6281C87.2746 58.2343 87.3634 56.8197 86.2082 55.759C84.6508 54.329 82.8983 53.2845 80.693 53.2277C79.5128 53.1973 78.4582 52.7989 77.5447 52.033C76.8318 51.4354 76.197 50.7611 75.5488 50.0974C73.955 48.4656 72.1181 47.2777 69.8037 46.9295C68.0152 46.6604 66.2311 46.6493 64.4406 46.8599C62.6013 47.0763 60.9858 47.754 59.6649 49.0977C59.1972 49.5734 58.6609 49.9898 58.1197 50.3835C56.7663 51.3679 55.5157 51.4039 54.1649 50.5226C53.5364 50.1126 52.8604 49.7189 52.414 49.1239C51.6158 48.0601 50.6597 47.8975 49.4721 48.3001C49.1101 48.4228 48.6937 48.5137 48.143 48.3435C48.6845 47.833 49.1835 47.4253 49.6036 46.9481C49.996 46.5023 50.3419 46.5131 50.8364 46.7754C51.812 47.2931 52.8552 47.6617 53.8908 48.0492C55.8094 48.7671 57.5389 48.4876 59.2116 47.3244C60.6917 46.2951 62.4058 45.794 64.1642 45.4822C65.6576 45.2174 67.1642 45.0253 68.6794 44.9293C71.8005 44.7316 74.6004 45.3509 76.6638 47.976C77.8227 49.4504 79.3743 50.4227 81.0787 51.1744C82.3415 51.7314 83.6235 52.2469 84.8416 52.9048C86.7299 53.9246 88.0718 55.3639 88.6896 57.4773C89.2014 59.2278 89.4915 61.0094 89.7215 62.808C89.7495 63.0274 89.7615 63.2308 89.9596 63.3833C91.1219 64.2783 92.3068 65.1887 93.7695 65.4642C95.0399 65.7036 95.9221 66.3779 96.6372 67.3696C97.341 68.3457 98.004 69.3524 98.7348 70.3076C99.3607 71.1256 100.014 71.2802 100.991 70.9651C101.387 70.8376 101.771 70.6864 102.121 70.457C105.896 67.9836 109.016 64.8782 111.225 60.9191C112.24 59.1004 113.053 57.19 113.113 55.0629C113.174 52.8542 113.116 50.6499 112.701 48.4657C112.63 48.0935 112.473 47.6858 112.65 47.2443C113.026 47.544 112.97 47.9594 113.03 48.299C113.382 50.2706 114.07 52.1961 113.876 54.246C113.82 54.8345 113.786 55.4251 113.744 56.0148C113.568 58.4815 112.891 60.7664 111.464 62.8283C109.288 65.9718 106.624 68.6433 103.709 71.0868C103.028 71.6574 102.361 72.208 101.454 72.4357C100.232 72.7425 99.0384 73.1619 97.828 73.5179C97.4686 73.6237 97.2054 73.8017 97.0083 74.1344C96.2843 75.3565 95.5358 76.5641 94.797 77.7773C94.6464 78.0247 94.4975 78.2732 94.3478 78.5212C94.7634 78.2367 95.1016 77.9034 95.4748 77.6156C96.2634 77.0075 97.1132 76.8039 98.0772 77.2251C98.6581 77.479 99.2329 77.7469 99.7615 78.0861C101.785 79.3845 103.911 79.2984 106.07 78.5658C108.198 77.8438 109.638 76.2728 110.807 74.4514C113.238 70.6665 114.401 66.4656 114.788 62.0157C115.019 59.3592 115.006 56.6951 115.101 54.0346C115.199 51.3307 115.079 48.6288 114.768 45.9404C114.562 44.1579 114.27 42.3893 113.677 40.6832C113.075 38.9471 112.347 37.265 111.555 35.6084C111.446 35.3815 111.266 35.1597 111.347 34.8107C115.685 41.0802 116.679 48.1092 116.494 55.4348C116.738 54.6718 116.699 53.881 116.758 53.108C117.125 48.2972 116.4 43.6378 114.786 39.0968C113.539 35.5902 111.946 32.2493 110.146 28.9999C107.89 24.9292 105.343 21.0597 102.142 17.6645C97.3777 12.6117 91.6902 8.93462 85.2205 6.43348C82.1106 5.23121 78.926 4.59698 75.5735 4.66479C71.9443 4.7382 68.3136 4.83882 64.6819 4.77832C62.2724 4.73819 59.8679 4.88347 57.4809 5.19481C54.4465 5.59061 51.4695 6.27489 48.5433 7.17657C44.3388 8.47214 40.319 10.187 36.5854 12.5254C32.1367 15.3117 28.4009 18.8796 25.2258 23.047C23.1827 25.7285 21.5924 28.6206 20.9091 31.9691C20.3155 34.8778 19.4446 37.6991 18.0036 40.3197C16.8999 42.3269 15.9917 44.4291 15.0307 46.5057C14.8352 46.928 14.7425 47.3517 14.764 47.8197C14.822 49.0842 15.0099 50.2846 15.5884 51.4607C16.1779 52.659 16.8484 53.7129 17.9753 54.459C18.2724 54.6556 18.4923 54.6766 18.7717 54.4804C19.0554 54.2812 18.9665 54.0433 18.8775 53.7959C18.6706 53.2212 18.381 52.6806 18.2222 52.0847C17.9202 50.9509 17.9705 50.7499 18.9225 50.1063C19.2379 49.893 19.4406 49.6347 19.5069 49.2613C19.6034 48.7185 19.7026 48.1761 19.8107 47.6355C19.8582 47.398 19.8304 47.1236 20.0813 46.9439C20.4065 47.1434 20.7291 47.3739 20.7618 47.7336C20.8152 48.321 21.1717 48.4667 21.6524 48.576C22.4742 48.7627 23.3305 48.8262 24.0783 49.2878C26.351 50.6907 28.9048 51.6708 30.733 53.7405C30.9806 54.0209 31.2563 53.9886 31.5774 53.7981C31.9344 53.5862 32.2663 53.2931 32.6989 53.2413C32.7902 53.4202 32.6868 53.5091 32.6065 53.5824C32.03 54.1089 31.9946 54.7308 32.257 55.4168C32.3343 55.619 32.3813 55.8325 32.4481 56.0389C33.1978 58.3565 33.3151 60.7001 32.8888 63.1038C32.221 66.8696 30.0097 69.3781 26.6415 70.9598C24.5387 71.9473 22.9791 71.5004 21.6644 69.6127C21.2812 69.0627 20.9039 68.5047 20.5744 67.9218C19.3217 65.7051 18.6877 63.3925 19.4088 60.833C19.7896 59.4815 19.9866 58.1077 19.6275 56.687C19.4763 56.089 19.1539 55.9499 18.6464 55.8872C18.5196 56.1166 18.5372 56.3384 18.5542 56.5477C18.6172 57.319 18.3956 57.9457 17.8451 58.5292C17.3468 59.0574 17.0572 59.7298 16.9939 60.5013C16.9537 60.9908 16.9467 61.5558 16.4801 61.9003C15.9777 62.2713 15.6865 62.75 15.5475 63.3576C15.4558 63.7581 15.29 64.1441 15.133 64.5266C14.7811 65.3842 14.3863 66.2252 14.0631 67.0931C13.8637 67.6287 13.7109 68.2371 14.1995 68.6989C14.6271 69.1029 14.9311 69.5717 15.2026 70.0768C15.5863 70.7905 16.009 71.4709 16.567 72.073C17.7385 73.3371 18.7414 74.7314 19.559 76.2495C20.6839 78.338 21.057 80.512 20.229 82.8069C19.8822 83.768 19.3185 84.5484 18.4289 85.0772C17.704 85.508 16.9555 85.7207 16.0279 85.196C16.3064 86.1968 16.3577 87.0185 16.1165 87.8646C15.871 88.7262 15.4956 89.5267 15.121 90.3292C14.8044 91.0072 15.1038 91.6016 15.3074 92.2116C15.453 92.6477 15.8965 92.4217 16.1781 92.5654C16.2814 92.6181 16.4317 92.599 16.5145 92.668C17.3155 93.3349 18.1574 93.1345 19.0108 92.8096C19.1023 92.7747 19.2016 92.7596 19.2977 92.7373C20.3214 92.4998 21.2685 92.4968 21.8801 93.5605C22.0662 93.8842 22.3221 93.9479 22.6799 93.8027C23.0876 93.6372 23.5374 93.5595 23.9413 93.7885C24.2962 93.9897 24.4665 93.8243 24.6818 93.5788C25.6599 92.464 26.033 91.1009 26.3013 89.6951C26.7501 87.3423 26.8307 84.9578 26.9015 82.5725C26.9073 82.3756 26.8161 82.1341 27.0636 81.9888C27.3301 82.1316 27.2928 82.3887 27.3069 82.6125C27.3305 82.9865 27.3049 83.3645 27.3439 83.7363C27.5998 86.1729 27.4734 88.5736 26.8003 90.9446C26.4956 92.0179 26.0009 93.0017 25.5386 94.0025C25.3277 94.4591 25.506 94.6378 25.912 94.7868C26.1824 94.8861 26.3659 94.772 26.571 94.6534C26.9417 94.4389 27.3519 94.2654 27.7512 94.4798C28.7684 95.0259 29.6881 94.8804 30.6396 94.2853C31.3607 93.8342 32.1513 93.5003 33.0408 93.8973C33.5997 94.1468 33.8136 93.8603 33.9123 93.3348C34.0929 92.3723 33.9998 91.4058 33.9839 90.4429C33.9591 88.9457 33.668 87.4824 33.3532 86.0205C32.3305 86.2943 32.3229 86.2994 31.7143 85.3945C31.3622 84.8709 31.0187 84.3393 30.709 83.79C30.4182 83.2741 30.0458 82.8631 29.5073 82.6094C28.3688 82.073 27.5071 81.2277 26.7879 80.2107C26.4123 79.6797 25.9961 79.1769 25.5881 78.6695C25.4699 78.5225 25.3926 78.3185 25.0505 78.2658C24.637 79.2145 23.9699 80.0695 23.8661 81.1976C23.7544 82.4124 23.6907 83.6482 23.4051 84.8262C23.0861 86.1422 22.5452 87.4049 22.0895 88.6867C22.0388 88.8294 22.0411 89.0566 21.7886 89.0508C21.6693 88.8955 21.7382 88.743 21.7772 88.5937C21.9914 87.7735 22.2172 86.9562 22.421 86.1334C22.6873 85.0585 22.841 83.9881 22.6923 82.8598C22.5075 81.458 22.3512 80.0381 22.7665 78.6323C22.9223 78.105 23.0195 77.5579 23.1092 77.0142C23.2534 76.1408 22.8078 75.4424 21.9379 75.2603C21.4428 75.1567 21.067 74.926 20.7825 74.5262C20.7825 74.5262 20.8194 74.49 20.8939 74.4747ZM42.3933 85.8904C42.1834 85.6823 41.9553 85.4894 41.7666 85.2635C40.7985 84.1044 39.5758 83.6514 38.0889 83.9041C38.0502 83.9107 38.0103 83.9107 37.9709 83.9112C37.6409 83.9154 37.3486 84.0348 37.1051 84.2451C36.1003 85.1128 35.2898 86.1225 35.0146 87.4547C34.5731 89.5913 34.6825 91.7193 35.2154 93.8293C35.2377 93.9175 35.2481 94.0296 35.4319 94.037C35.7734 93.7366 36.1592 93.4296 36.5074 93.0846C37.4066 92.1938 38.4254 91.665 39.7351 91.9139C40.0998 91.9832 40.366 91.8153 40.6203 91.559C41.3921 90.7814 42.1 89.9306 43.2607 89.6587C43.6797 89.5606 44.1054 89.6279 44.5897 89.5106C43.963 88.2275 43.4457 86.9504 42.3933 85.8904ZM89.6667 87.709C88.6169 88.1409 87.5671 88.5728 86.5173 89.0046C86.9798 88.9623 87.4243 88.8763 87.8642 88.7706C90.8202 88.0606 93.6985 87.1041 96.5399 86.0304C101.219 84.2621 105.616 82.0134 109.393 78.6602C111.583 76.7165 113.38 73.6739 113.669 71.0912C113.221 72.3928 112.658 73.521 112.042 74.6201C110.205 77.8951 107.727 80.3861 103.896 81.1959C100.904 81.8282 98.2467 83.2535 95.5718 84.6545C93.6355 85.6687 91.8083 86.8953 89.6667 87.709ZM34.9801 95.4321C34.3146 94.8019 33.4641 94.7477 32.6198 94.6726C31.8877 94.6074 31.3593 94.9153 31.0267 95.5578C30.4159 96.7373 30.2662 97.9684 30.6197 99.2583C30.8583 100.129 30.8483 100.127 31.7225 99.9289C32.1941 99.8219 32.6499 99.5172 33.1523 99.7119C34.0071 100.043 34.6951 99.6613 35.3491 99.2115C35.8228 98.8856 36.0858 98.4274 36.0188 97.7986C35.9256 96.923 35.5355 96.19 34.9801 95.4321ZM21.8275 96.4992C21.6046 95.6557 21.0434 95.0632 20.3869 94.5358C20.0768 94.2867 19.8062 94.2921 19.5977 94.6374C18.9431 95.7208 18.0546 96.693 18.049 98.0803C18.047 98.5876 17.9316 99.0952 17.8564 99.601C17.8244 99.8163 17.8972 99.9744 18.031 100.138C18.4161 100.609 18.865 100.903 19.5087 100.794C20.207 100.676 21.0665 100.875 21.4611 100.088C22.0124 98.987 22.3652 97.8232 21.8275 96.4992ZM18.1601 56.03C18.3225 55.3959 17.7584 55.5084 17.4678 55.4083C17.1664 55.3044 17.1589 55.5813 17.1306 55.8104C16.908 57.6074 16.3458 59.2555 14.9801 60.5304C14.0877 61.3635 13.1807 62.1808 12.2846 63.01C12.1273 63.1555 11.9415 63.3015 11.855 63.4873C11.3341 64.6073 11.9347 66.3879 13.0659 67.0758C14.1915 65.9385 14.803 64.5309 15.1712 63.0002C15.3414 62.2925 15.4247 61.5335 15.8705 60.9496C16.9801 59.4961 17.6244 57.84 18.1601 56.03ZM41.3088 92.6911C41.2283 93.7603 41.5164 94.7531 41.9325 95.7203C42.0266 95.939 42.201 96.0454 42.4162 96.1176C43.8402 96.5954 45.0597 95.8029 45.1818 94.3173C45.1915 94.1996 45.217 94.0826 45.2192 93.965C45.2367 93.0427 45.3802 92.1198 45.1786 91.1987C45.0906 90.797 44.8878 90.6258 44.4687 90.7043C43.1861 90.9446 41.9682 91.2834 41.3088 92.6911ZM40.6666 94.7207C40.3071 94.2737 39.9531 93.7818 39.3092 93.7949C38.7205 93.8069 38.1341 93.9305 37.5792 94.1331C36.7327 94.4422 36.3508 95.1549 36.5558 96.0368C36.6935 96.629 36.869 97.2134 37.0497 97.7945C37.2883 98.5617 37.6723 98.7049 38.3889 98.3252C39.1526 97.9205 39.9168 97.5281 40.7704 97.3233C41.5304 97.1409 41.813 96.3131 41.3693 95.6994C41.1504 95.3966 40.9346 95.0915 40.6666 94.7207ZM30.6151 101.231C30.0254 101.582 29.884 102.009 30.0889 102.911C30.1739 103.286 30.1993 103.712 30.6883 103.837C32.0629 104.189 33.423 104.56 34.776 103.707C35.3096 103.371 35.7607 102.389 35.5295 101.798C35.4738 101.656 35.3721 101.572 35.2378 101.528C33.753 101.039 32.2604 100.648 30.6151 101.231ZM23.4838 95.7667C23.3514 95.9616 23.238 96.1732 23.0834 96.3486C22.2511 97.2933 22.5689 98.3708 22.7122 99.429C22.7323 99.5775 22.8396 99.6615 22.9566 99.743C23.7599 100.303 24.9193 100.203 25.4245 99.3815C26.3472 97.8818 26.5942 97.2162 25.2782 95.895C25.195 95.8115 25.1144 95.7252 25.0293 95.6436C24.3853 95.0268 24.1376 95.0362 23.4838 95.7667ZM15.7833 95.1669C15.138 96.5738 15.1067 98.1077 14.8816 99.5997C14.8233 99.9866 15.3948 100.574 15.8467 100.651C16.3536 100.737 16.8034 100.53 16.9655 100.074C17.2866 99.1693 17.6156 98.2519 17.6653 97.2797C17.6986 96.6271 17.5444 95.9867 17.4035 95.3517C17.2834 94.8109 16.8342 94.6872 16.3793 94.6008C16.0095 94.5305 15.9228 94.8267 15.7833 95.1669ZM37.3234 102.139C37.4996 102.158 37.6764 102.197 37.8518 102.192C38.4607 102.175 39.0994 102.348 39.6726 102.132C40.7121 101.74 41.2459 100.565 40.9701 99.4735C40.7983 98.7934 40.5933 98.6769 39.9228 98.9152C39.3091 99.1332 38.7002 99.39 38.0428 99.404C37.3645 99.4184 36.9113 99.7133 36.6892 100.34C36.4484 101.019 36.6398 101.603 37.3234 102.139ZM24.5847 104.821C24.8921 104.461 25.1959 104.098 25.5085 103.743C25.6775 103.551 25.7402 103.334 25.7061 103.087C25.6387 102.598 25.5665 102.111 25.4983 101.623C25.453 101.299 25.2397 101.14 24.9585 101.255C24.2432 101.549 23.5659 101.43 22.8894 101.159C22.5254 101.014 22.347 101.147 22.2381 101.505C21.8982 102.623 22.1032 103.645 22.7602 104.585C23.2138 105.235 23.9988 105.36 24.5847 104.821ZM28.8621 99.8398C29.3978 99.1784 29.3432 98.3183 29.6186 97.5677C29.833 96.9836 29.4891 96.3466 28.9056 96.1585C27.559 95.7247 26.8442 96.1503 26.6108 97.7743C26.5357 98.2961 26.6912 98.8394 26.6772 99.3597C26.6518 100.299 26.9754 100.386 27.9261 100.339C28.2845 100.322 28.5598 100.149 28.8621 99.8398ZM26.4983 103.879C27.1118 104.693 28.2673 104.805 28.8548 104.107C29.326 103.547 29.4586 102.084 29.1068 101.416C28.9831 101.181 28.8134 101.219 28.608 101.278C28.2507 101.38 27.8911 101.506 27.5249 101.54C26.3818 101.647 26.3557 101.654 26.348 102.802C26.3458 103.134 26.3415 103.471 26.4983 103.879ZM43.4155 97.1793C42.4401 97.4356 41.8349 98.2839 41.8755 99.3381C41.9025 100.04 42.0572 100.171 42.7508 100.213C43.2007 100.24 43.5357 100.134 43.8226 99.7592C44.1685 99.3077 44.5557 98.8821 44.9655 98.4875C45.2844 98.1804 45.2272 97.8857 45.1104 97.5257C44.9855 97.1406 44.7035 97.1581 44.4036 97.1631C44.1084 97.168 43.8133 97.17 43.4155 97.1793ZM20.8205 105.182C21.0425 104.968 21.3688 104.828 21.4277 104.49C21.5693 103.678 21.3444 102.938 20.9187 102.251C20.8008 102.061 20.6307 102.023 20.4089 102.091C19.497 102.369 19.0305 103.297 19.3684 104.198C19.4577 104.436 19.5643 104.669 19.6742 104.898C19.9838 105.545 20.0927 105.576 20.8205 105.182ZM16.9569 103.991C17.2911 104.32 17.7366 104.37 18.161 104.415C18.4359 104.444 18.7968 104.309 18.6684 103.955C18.4213 103.272 18.1689 102.576 17.7391 101.982C17.4991 101.65 17.1063 101.585 16.7184 101.688C16.3522 101.786 16.3477 102.139 16.3316 102.416C16.2983 102.991 16.5612 103.479 16.9569 103.991ZM14.4711 95.2686C14.4028 96.2009 14.3345 97.1333 14.2661 98.0656C14.8925 96.8217 15.1373 95.5458 14.7203 94.2091C14.4859 94.5038 14.541 94.8436 14.4711 95.2686ZM18.6528 82.5126C18.668 82.4765 18.6921 82.4413 18.6958 82.4041C18.699 82.3717 18.6792 82.3371 18.6601 82.2705C18.0516 82.9711 17.4347 83.6395 16.5937 84.0476C17.6692 84.0962 18.2048 83.4166 18.6528 82.5126ZM17.6111 106.177C17.655 106.359 17.699 106.54 17.7429 106.721C17.6377 106.199 17.776 105.62 17.4168 105.159C17.3215 105.502 17.535 105.78 17.6111 106.177Z" fill="white"/>
<path d="M38.2847 35.5404C37.6582 36.7322 37.1489 37.9323 36.5746 39.0991C35.7819 40.7098 35.8233 42.3147 36.121 44.0435C36.7099 47.4635 37.9391 50.6451 39.3578 53.7756C39.5571 54.2153 39.8879 54.5576 40.2153 54.8984C41.3244 56.0528 42.5314 57.1045 43.768 58.1144C44.7604 58.9248 45.3272 59.9339 45.7129 61.1362C46.329 63.0571 47.1269 64.9078 48.5008 66.4382C49.9527 68.0553 51.8193 68.8761 53.9345 69.1643C56.0417 69.4513 58.1523 69.7176 60.2661 69.9501C61.2246 70.0555 62.1942 70.067 63.1594 70.1041C65.4652 70.1926 67.7713 70.2745 70.0776 70.351C70.6922 70.3714 71.2064 70.6902 71.7543 70.8958C74.1728 71.8035 76.5796 72.7426 78.9915 73.6679C79.1547 73.7305 79.3305 73.7673 79.3994 74.0329C78.736 74.0636 78.13 73.8918 77.5253 73.7923C74.9978 73.3765 72.4761 72.8829 69.9221 72.7051C67.7802 72.5559 65.6223 72.6153 63.4736 72.7183C62.3324 72.773 61.1884 72.7562 60.0491 72.8898C59.4017 72.9657 58.7787 72.7363 58.2543 72.3851C57.1505 71.6459 55.944 71.3172 54.635 71.275C52.3347 71.2007 50.0478 70.8493 47.7292 71.1369C46.564 71.2814 45.4544 70.7301 44.3369 70.4233C43.4248 70.1728 42.5336 69.8456 41.6197 69.6026C40.8817 69.4064 40.3566 68.9756 39.9842 68.3367C39.4876 67.4845 39.2351 66.5668 39.2297 65.5731C39.2227 64.2722 39.3498 62.974 39.2489 61.6703C39.1348 60.1966 38.6954 58.9626 37.3078 58.1735C36.1116 57.4933 35.6217 56.3259 35.5481 54.9993C35.5049 54.2197 35.311 53.5338 34.7984 52.9347C34.4911 52.5755 34.2383 52.1701 33.9361 51.8061C32.0168 49.4935 31.8598 46.8099 32.5309 44.0786C32.9516 42.3664 33.8188 40.776 34.5855 39.1746C35.4041 37.4652 36.3018 35.8019 37.3878 34.2401C38.6203 32.4675 40.3915 31.3604 42.162 30.243C42.3947 30.0961 42.6404 29.9691 42.8844 29.8412C42.927 29.8189 42.9913 29.838 43.1223 29.9154C40.8753 31.2449 39.4578 33.262 38.2847 35.5404Z" fill="#2F2F2F"/>
<path d="M72.2607 5.88157C69.1656 5.82672 66.1302 5.83556 63.097 6.09227C55.9082 6.70069 48.9634 8.30585 42.3658 11.2472C39.5693 12.4939 37.0097 14.1902 34.4584 15.8797C34.2212 16.0368 34.0079 16.261 33.685 16.2679C33.6105 16.0456 33.7919 15.9739 33.9015 15.8923C36.4976 13.9614 39.0542 11.9577 41.9745 10.5298C44.6358 9.22839 47.4372 8.27428 50.2868 7.45684C53.7068 6.47575 57.1849 5.77892 60.7155 5.39977C64.1834 5.02735 67.6593 4.75473 71.1623 4.9605C74.1404 5.13544 77.1005 5.39998 80.0097 6.06767C85.4012 7.30506 90.3938 9.43542 94.7871 12.8472C96.4988 14.1764 97.848 15.8626 99.1744 17.5565C100.074 18.7055 100.917 19.8986 101.784 21.0734C101.92 21.2584 102.071 21.44 102.103 21.7677C101.751 21.6379 101.6 21.3817 101.423 21.1672C99.5506 18.9 97.6549 16.6577 95.5017 14.6415C93.6643 12.9211 91.4854 11.726 89.3376 10.4786C85.3397 8.15668 81.012 6.82282 76.4394 6.26057C75.0705 6.09224 73.6915 6.00654 72.2607 5.88157Z" fill="#3A3A3A"/>
<path d="M50.8705 34.8666C49.5755 36.8807 48.5022 38.967 47.4874 41.0848C46.6446 42.8436 45.6143 44.5147 44.9959 46.3786C44.3301 48.3856 44.3012 50.3109 45.6275 52.1151C46.6242 53.471 47.5017 54.8978 47.7591 56.6144C47.9225 57.7043 48.0189 58.8013 48.2297 59.8879C48.5348 61.4609 49.3482 62.6335 50.677 63.4943C51.7229 64.1718 52.8134 64.761 53.9482 65.2731C54.1341 65.357 54.3808 65.3722 54.4603 65.6289C54.35 65.8424 54.183 65.7246 54.053 65.6849C52.8464 65.3161 51.6656 64.8843 50.4996 64.394C48.401 63.5113 47.5572 61.8548 47.5276 59.7161C47.4979 57.5712 46.8703 55.6649 45.6414 53.9111C44.8181 52.7362 44.0394 51.5303 43.5633 50.1438C43.0945 48.7788 43.3236 47.5398 44.0066 46.3447C44.8467 44.8745 45.8263 43.4789 46.2515 41.8007C46.5128 40.7694 46.833 39.755 47.2304 38.7645C47.704 37.5843 48.5023 36.6346 49.3494 35.7234C50.2196 34.7874 50.9246 33.7553 51.3852 32.56C51.9081 31.203 52.7475 30.123 54.0871 29.4811C54.1931 29.4303 54.2834 29.3461 54.39 29.2968C55.8367 28.6273 56.4224 27.4561 56.3871 25.9101C56.3767 25.4574 56.3906 25.0049 56.4899 24.5563C56.6818 23.6888 57.2069 23.0889 57.9436 22.6319C58.8446 22.0729 59.8155 21.5926 60.291 20.5448C60.5611 19.9497 60.7939 19.341 60.9405 18.7081C61.5493 16.0794 62.141 13.4467 62.7317 10.8138C62.8381 10.3395 62.8567 9.84276 63.0888 9.40577C63.3323 9.43225 63.2922 9.60035 63.2785 9.72137C62.919 12.9121 62.4938 16.0942 61.898 19.25C61.6211 20.7166 60.9077 21.9082 59.4852 22.5507C58.071 23.1896 57.5054 24.3357 57.6523 25.806C57.8341 27.6249 57.0366 28.9255 55.5856 29.8286C53.5639 31.0868 52.1355 32.8617 50.8705 34.8666Z" fill="#BBBBBB"/>
<path d="M28.9844 121.113C27.1993 121.613 25.4171 121.801 23.6246 121.921C22.4841 121.998 21.3426 122.062 20.2038 122.16C19.6616 122.206 19.2722 122.051 18.942 121.595C18.55 121.053 18.0781 120.569 17.6424 120.059C17.5183 119.914 17.3641 119.782 17.36 119.506C17.8367 119.632 18.1212 119.974 18.3705 120.292C18.9807 121.069 19.7957 121.243 20.7143 121.291C21.6195 121.338 22.5234 121.398 23.4301 121.431C25.5894 121.51 27.6277 120.966 29.5838 120.161C33.0897 118.719 36.6918 117.557 40.2578 116.286C43.2474 115.221 45.7428 113.368 47.8354 110.977C49.3074 109.295 49.8234 107.246 50.1083 105.11C50.3592 103.23 50.3982 101.337 50.3812 99.4426C50.3792 99.22 50.3163 98.9619 50.5588 98.7896C50.816 98.9462 50.7474 99.2076 50.7667 99.4293C51.0219 102.362 51.0284 105.302 50.9799 108.242C50.9479 110.184 50.2077 111.72 48.4249 112.729C42.9515 115.826 37.3097 118.541 31.3097 120.466C30.5598 120.707 29.7922 120.893 28.9844 121.113Z" fill="#646464"/>
<path d="M44.4011 103.126C44.6622 102.827 44.8857 102.55 45.1344 102.297C46.4055 101.007 46.7767 99.3717 46.9106 97.6515C47.053 95.8226 47.0716 93.9948 46.9549 92.1593C46.8434 90.4055 46.255 88.8229 45.4849 87.28C44.751 85.8095 44.2006 84.2758 43.9019 82.654C43.5247 80.6051 44.8449 78.7881 46.8997 78.5536C46.9689 78.5457 47.0433 78.583 47.1168 78.5996C47.1208 78.885 46.8913 78.9294 46.7344 79.0159C44.9358 80.0081 44.6627 81.0583 44.9942 83.0261C45.3544 85.1643 46.167 87.1588 47.063 89.1066C47.7528 90.6064 47.9002 92.1757 47.993 93.766C48.1093 95.7584 48.051 97.7448 47.56 99.6982C47.3329 100.602 46.9496 101.445 46.2445 102.035C44.2247 103.727 43.0876 105.985 42.0438 108.317C41.9681 108.487 41.9419 108.707 41.5522 108.78C42.3185 106.753 42.8788 104.731 44.4011 103.126Z" fill="#303030"/>
<path d="M34.5178 65.1285C33.6712 68.9174 31.1968 71.1893 27.7082 72.3026C24.514 73.3219 20.9046 71.4646 19.5938 68.3757C18.9006 66.7421 18.5446 65.0392 18.7729 63.2032C19.0219 63.3319 18.9879 63.5431 19.0102 63.7164C19.1609 64.8905 19.3758 66.0507 19.7006 67.1908C20.1006 68.5951 20.838 69.7907 21.9248 70.7569C23.2555 71.94 24.8318 72.0546 26.4891 71.7187C28.2382 71.3641 29.8291 70.639 31.2443 69.5604C32.4711 68.6254 32.9401 67.216 33.4053 65.8317C34.2033 63.4571 34.0932 61.0597 33.4969 58.6612C33.3449 58.0496 33.1959 57.4373 33.047 56.8249C32.9837 56.5649 32.8676 56.3079 32.9772 56.0222C33.8068 56.8254 34.7146 62.1724 34.5178 65.1285Z" fill="#2E2C2C"/>
<path d="M31.8114 81.4112C31.2979 81.3715 30.8416 81.3268 30.4043 81.1953C30.4068 81.1416 30.4092 81.0879 30.4117 81.0342C31.0852 80.9941 31.7584 80.9273 32.4321 80.9231C32.9001 80.9201 33.2407 80.7771 33.565 80.4232C34.3393 79.5784 35.2055 78.8305 36.1844 78.2223C36.8658 77.7989 37.605 77.6479 38.3947 77.752C39.0192 77.8343 39.6385 77.9844 40.2649 78.0193C42.3649 78.1364 44.3066 77.6116 45.9606 76.304C47.0801 75.419 46.9249 73.7817 45.7093 72.6882C44.9656 72.0191 44.0649 71.6057 43.1539 71.2268C41.9319 70.7186 40.6541 70.3772 39.3693 70.0771C38.8813 69.9631 38.6139 69.6786 38.313 69.3137C37.6848 68.5523 37.5474 67.7107 37.6735 66.7798C37.6961 66.613 37.6853 66.6116 37.8639 66.3236C38.1456 66.4516 38.0913 66.7148 38.0905 66.9359C38.0869 67.8374 38.4896 68.5294 39.182 69.0634C40.2269 69.8693 41.3894 70.4347 42.6877 70.7014C43.9596 70.9627 45.1432 71.4042 46.1611 72.2493C47.7641 73.5803 47.7275 75.6453 46.0501 76.8837C44.8902 77.74 43.5085 78.0077 42.1514 78.3533C41.1177 78.6165 40.0847 78.6065 39.0413 78.491C37.9681 78.3723 37.0076 78.6647 36.1501 79.3002C35.6751 79.6523 35.1955 80.0055 34.7645 80.408C33.9399 81.1781 33.0134 81.5971 31.8114 81.4112Z" fill="white"/>
<path d="M55.8086 82.9054C54.5444 83.2856 53.911 84.205 53.5308 85.3354C53.1344 86.514 52.8582 87.7224 52.7839 88.9696C52.7688 89.2226 52.7899 89.4872 52.5495 89.6763C52.2979 89.5649 52.3889 89.342 52.3973 89.1678C52.4681 87.7127 52.5468 86.258 52.6312 84.8037C52.6471 84.5295 52.6595 84.2451 52.7409 83.9867C53.0006 83.162 52.7221 82.556 52.0241 82.116C51.2455 81.6252 50.6433 80.9466 50.0262 80.2831C49.8953 80.1424 49.7398 80.0077 49.7249 79.7919C49.7637 79.778 49.8181 79.7445 49.8305 79.756C50.8583 80.7127 52.1448 81.2313 53.364 81.8685C54.0352 82.2194 54.6976 82.4145 55.4604 82.2326C56.4076 82.0068 57.3396 82.1718 58.2532 82.4508C58.7702 82.6086 58.9592 83.1297 58.6392 83.5479C58.4067 83.8517 58.2247 83.5769 58.0661 83.432C57.4244 82.8454 56.7194 82.5449 55.8086 82.9054Z" fill="#8D8D8D"/>
<path d="M25.4854 47.6777C24.9367 47.5606 24.439 47.4317 23.9334 47.355C23.4312 47.2789 22.9264 47.2318 22.4473 47.063C22.4677 46.8114 22.6397 46.8318 22.7558 46.8401C24.3844 46.9569 26.041 46.9254 27.5942 47.5232C29.6346 48.3085 31.2696 49.5227 31.7964 51.8044C31.8378 51.9838 31.9629 52.1664 31.7803 52.4986C30.575 49.6777 28.2409 48.4309 25.4854 47.6777Z" fill="white"/>
<path d="M32.2324 107.009C31.7745 106.937 31.3661 106.874 30.9591 106.803C30.1882 106.668 29.7757 106.863 29.4412 107.593C29.1212 108.291 28.8432 109.009 28.5453 109.717C28.4733 109.889 28.4711 110.114 28.149 110.174C28.0214 109.596 28.1318 109.032 28.3116 108.517C28.5648 107.793 28.9572 107.124 29.4068 106.494C29.6571 106.144 29.9705 105.954 30.409 105.996C30.7026 106.024 31.009 106.004 31.288 106.083C32.3964 106.396 33.4638 106.247 34.524 105.873C34.7014 105.81 34.8838 105.698 35.0902 105.788C34.8178 106.518 33.2344 107.207 32.2324 107.009Z" fill="#595959"/>
<path d="M22.093 110.416C21.9143 110.699 21.9323 111.077 21.473 111.201C21.5702 110.464 21.771 109.808 22.0292 109.186C22.3943 108.308 22.9871 107.564 23.6691 106.904C23.9304 106.651 24.2938 106.595 24.6581 106.578C25.0505 106.559 25.4411 106.489 25.8332 106.483C26.6771 106.47 26.8637 106.329 26.7388 107.385C26.6835 107.852 26.7894 108.331 26.6568 108.793C26.6442 108.837 26.5742 108.864 26.5342 108.896C26.3392 108.82 26.3429 108.652 26.3213 108.499C26.1893 107.563 25.2819 107.117 24.4119 107.525C23.4479 107.976 22.8147 108.7 22.4533 109.689C22.3661 109.928 22.2272 110.148 22.093 110.416Z" fill="#777777"/>
<path d="M30.2197 92.976C30.9524 92.0426 31.8723 91.8566 32.9413 92.1023C33.4388 92.2167 33.6381 92.4847 33.5345 92.9866C33.2485 93.1518 33.0243 92.9511 32.8108 92.8591C32.0804 92.544 31.4331 92.6301 30.8466 93.168C30.8321 93.1813 30.815 93.1916 30.8001 93.2043C29.4535 94.3542 28.9561 94.2885 27.8234 93.3552C27.3802 92.9901 26.8765 92.931 26.3002 93.2844C26.5127 92.662 26.9618 92.4391 27.4707 92.5933C27.8553 92.7098 28.1578 92.9713 28.4967 93.1682C29.2274 93.5928 29.5288 93.5649 30.2197 92.976Z" fill="black"/>
<path d="M26.3738 114.163C26.8582 114 27.2904 113.972 27.7315 114.234C27.5703 114.637 27.1573 114.711 26.8995 114.959C26.6782 115.172 26.2949 115.316 26.3198 115.651C26.347 116.016 26.7549 116.045 27.0393 116.161C27.1061 116.189 27.1618 116.243 27.2282 116.289C26.8614 116.608 26.4168 116.587 25.9237 116.232C25.5484 115.961 25.2943 115.629 25.4868 115.131C25.6491 114.711 25.9448 114.406 26.3738 114.163Z" fill="#403D3D"/>
<path d="M20.7643 74.5446C20.2828 74.5312 20.067 74.2773 20.0354 73.7718C20.4369 73.8745 20.6155 74.1468 20.8089 74.452C20.8194 74.49 20.7825 74.5262 20.7643 74.5446Z" fill="white"/>
</g>
<defs>
<clipPath id="clip0_3_12">
<rect width="108" height="121.263" fill="white" transform="translate(10 3)"/>
</clipPath>
</defs>
</svg>
