<svg width="120" height="135" viewBox="0 0 120 135" fill="none" xmlns="http://www.w3.org/2000/svg">
<mask id="path-1-outside-1_3_14" maskUnits="userSpaceOnUse" x="0" y="0" width="120" height="135" fill="black">
<rect fill="white" width="120" height="135"/>
<path d="M119 59.2925C118.718 60.419 118.704 61.523 118.548 62.607C118.081 65.8678 117.525 69.1102 116.751 72.3134C116.165 74.7405 115.598 77.169 114.647 79.4942C113.639 81.9556 111.839 83.7643 109.887 85.4433C105.355 89.3417 100.051 91.8376 94.4673 93.8051C91.3995 94.886 88.3123 95.9157 85.1181 96.5548C82.1608 97.1466 79.1828 97.3143 76.2024 96.6571C74.5382 96.2902 73.0535 95.501 71.5829 94.6874C68.9747 93.2445 66.5991 91.4458 64.1388 89.7769C63.911 89.6224 63.6775 89.4764 63.3876 89.288C63.0024 90.1554 62.9853 91.017 62.8831 91.8592C62.7384 93.0514 63.2262 94.1449 63.4414 95.2792C63.9511 97.9658 64.3182 100.668 64.567 103.392C64.7303 105.181 64.7816 106.974 64.6623 108.751C64.3921 112.776 63.3324 116.556 60.6937 119.741C59.1057 121.657 57.0217 122.58 54.5681 122.797C52.3423 122.994 50.0754 122.885 47.9047 123.521C44.7805 124.436 41.7457 125.613 38.7351 126.843C35.5452 128.147 32.3687 129.485 29.2098 130.862C27.6773 131.53 26.0374 131.638 24.4369 131.935C21.1574 132.542 17.8618 133.063 14.5011 133.467C13.634 133.491 12.8118 133.491 11.8914 133.462C10.9633 133.209 10.1296 132.998 9.30464 132.756C8.08714 132.4 7.21681 131.679 6.87046 130.405C6.72398 129.866 6.51374 129.345 6.3497 128.81C5.7737 126.933 5.50263 125.024 5.92187 123.081C6.21772 121.709 6.79872 120.426 7.29048 119.117C7.86502 117.587 8.10525 116.054 7.59541 114.446C7.29602 113.502 6.95424 112.574 6.64125 111.636C6.19445 110.298 5.47389 109.205 4.26369 108.453C3.69486 108.1 3.49569 107.592 3.5548 106.915C3.79808 104.129 3.9575 101.333 4.25349 98.5526C4.39987 97.1775 4.57508 95.7858 5.32291 94.5364C5.99414 93.4149 6.06075 92.1693 5.73631 90.9092C5.6291 90.4928 5.50791 90.0784 5.36421 89.6734C5.13965 89.0403 5.38679 88.6275 5.94761 88.3604C6.47257 88.1104 7.0172 87.9007 7.53643 87.6399C8.76481 87.023 9.20861 86.1288 9.04753 84.7997C8.85077 83.1761 8.12404 81.7634 7.35956 80.3619C6.19704 78.2306 4.63714 76.3168 3.85782 73.9765C3.69424 73.4852 3.44389 73.1116 2.93799 72.8912C2.53615 72.7162 2.28465 72.3499 2.11842 71.931C1.75405 71.0128 1.37378 70.1009 1 69.1865C0.999999 68.6228 0.999999 68.0591 1.01732 67.3875C1.00241 66.2969 1.55943 65.6769 2.26989 65.0854C3.26233 64.2592 4.17822 63.3416 5.1403 62.4781C5.60019 62.0653 5.89535 61.5563 6.18021 61.0172C7.08288 59.3092 7.1741 57.6532 6.14288 55.9388C5.57947 55.0021 5.19002 53.9606 4.72501 52.9651C4.58825 52.6722 4.46287 52.3775 4.45253 52.0431C4.42455 51.1389 4.39227 50.2347 4.34768 49.3312C4.32805 48.9333 4.39689 48.5617 4.56489 48.2024C5.48646 46.2314 6.30932 44.207 7.34676 42.2991C9.11179 39.0533 10.3743 35.6527 11.1045 32.0324C11.5578 29.7849 12.3485 27.6407 13.5258 25.6588C17.0012 19.8083 21.5657 14.962 27.1244 11.0583C32.5482 7.24938 38.5766 4.75044 44.9486 3.04803C49.7097 1.77601 54.5535 1.05773 59.4944 1.08679C59.7935 1.08855 60.0998 1.12541 60.3882 1C65.5663 1 70.7444 1 76.0294 1.02134C77.3562 1.17538 78.5629 1.38538 79.7455 1.7131C84.3435 2.9873 88.6377 4.94521 92.6861 7.46119C97.9011 10.7021 102.401 14.7233 106.113 19.6266C108.813 23.1942 111.1 27.016 113.159 30.9767C115.118 34.7455 116.808 38.6321 117.933 42.7393C118.347 44.2503 118.648 45.7923 119 47.3202C119 51.2908 119 55.2613 119 59.2925ZM12.7732 78.9632C13.296 78.8799 13.5037 78.3211 13.9903 78.1224C14.5435 78.8029 14.9786 79.5826 15.8197 79.9269C16.7956 80.3264 17.4677 81.0165 18.0498 81.8977C19.0912 83.4744 20.1062 85.1032 21.8627 86.0378C22.5477 86.4022 23.2223 86.7876 23.8875 87.187C25.2558 88.0088 26.5452 87.7118 27.7485 86.8678C28.6113 86.2626 29.3823 85.528 30.2842 84.9716C30.7259 84.6991 31.1811 84.4745 31.718 84.4239C35.2527 84.0904 38.6445 83.3374 41.6139 81.2196C43.3899 79.953 45.4192 79.7031 47.545 79.9777C49.4915 80.2291 51.4456 80.5061 53.3126 81.0846C55.2365 81.6807 56.9261 81.499 58.5586 80.3308C59.6602 79.5426 60.9275 79.5175 62.2228 79.7004C63.4367 79.8717 64.6575 80.1268 65.8734 80.1169C67.2432 80.1058 68.6163 79.8757 69.9781 79.6743C71.3119 79.477 72.6352 79.4443 73.9696 79.628C74.4667 79.6964 74.7933 79.9295 74.9932 80.395C75.3587 81.2459 75.7782 82.0742 76.126 82.9318C76.3318 83.4393 76.6556 83.7355 77.1773 83.8745C77.9317 84.0756 78.6773 84.3098 79.4482 84.5362C79.2568 84.9228 78.9007 84.958 78.6117 85.0342C77.8815 85.2265 77.6637 85.7025 77.5971 86.4083C77.4955 87.4841 77.4579 88.5572 77.4621 89.6353C77.463 89.8524 77.5379 90.113 77.266 90.2707C77.0284 90.0641 76.9973 89.7705 76.9608 89.5069C76.7865 88.2445 76.4658 87.0164 76.1664 85.781C76.0169 85.1643 75.6926 84.7373 75.1748 84.4165C73.9453 83.6548 72.6768 82.968 71.3505 82.3885C70.9651 82.2201 70.583 82.1682 70.1563 82.2249C69.6731 82.2892 69.1838 82.4623 68.6872 82.2823C67.7265 81.934 66.8721 82.3947 65.9944 82.6495C65.7586 82.718 65.7323 82.9651 65.6918 83.1817C65.5332 84.0284 65.3692 84.874 65.2043 85.7194C65.1661 85.9155 65.2068 86.1659 64.9159 86.2088C64.7121 86.0992 64.7586 85.9095 64.7339 85.7467C64.5785 84.7259 64.4383 83.7024 64.2634 82.6849C64.106 81.7696 63.4934 81.1591 62.6724 80.8928C61.6091 80.5479 60.5379 80.7223 59.5136 81.1639C59.6127 81.588 59.8337 81.8049 59.9928 82.057C60.4174 82.7296 60.9318 83.371 60.9106 84.2245C60.8784 85.5179 60.7939 86.8205 60.4774 88.0687C60.0223 89.8638 59.5152 91.6455 59.1188 93.4563C58.6318 95.6806 58.601 97.8838 59.1933 100.104C59.7046 102.021 60.3893 103.881 60.9347 105.786C61.5473 107.925 61.8394 110.072 61.3407 112.29C60.7502 114.915 59.682 117.283 57.7162 119.161C56.5462 120.278 55.1407 120.928 53.4782 120.591C52.1093 120.314 50.9167 119.589 49.7305 118.881C49.5955 118.8 49.4054 118.734 49.4658 118.392C49.9296 118.602 50.3745 118.79 50.8073 119.003C51.8635 119.522 52.9786 119.882 54.1447 119.954C55.496 120.037 56.4613 119.273 57.2389 118.251C58.2137 116.969 58.8579 115.502 59.4974 114.043C60.5324 111.682 60.9421 109.237 60.3963 106.662C60.0062 104.821 59.352 103.064 58.8222 101.268C58.1479 98.9828 57.6776 96.7074 58.2295 94.2814C58.6894 92.2598 59.2532 90.2722 59.8873 88.3093C60.4918 86.438 60.1023 84.643 59.7868 82.8246C59.7044 82.3496 58.8546 81.9552 58.5715 82.2296C58.1927 82.5969 57.7732 82.9349 57.6279 83.5061C56.7713 86.8727 55.5003 90.1057 54.3746 93.384C53.5823 95.6912 53.2332 98.0113 53.5233 100.435C53.6206 101.249 53.6273 102.074 53.6771 102.922C53.3465 102.847 53.3132 102.639 53.2677 102.46C53.0084 101.438 52.7716 100.409 52.5036 99.3894C51.9406 97.2466 52.1241 95.1773 53.0084 93.1455C53.644 91.6853 54.3064 90.2306 54.6692 88.6671C54.9054 87.6491 55.1438 86.6317 55.4026 85.5225C55.1609 85.5995 55.0355 85.6246 54.923 85.6775C53.729 86.2388 52.4688 86.6078 51.2128 86.9973C50.2324 87.3014 49.3935 87.1957 48.5428 86.5701C46.8937 85.3574 45.2136 84.1819 43.5698 82.9651C42.3271 82.0452 41.2494 82.1556 40.0652 82.8926C39.2589 83.3944 38.4302 83.8474 37.5408 84.1943C36.4178 84.6322 36.0941 85.3448 36.2726 86.5442C36.5131 88.1599 37.39 89.4551 38.2206 90.7949C39.5292 92.9057 40.4685 95.1435 40.4003 97.7036C40.3412 99.923 40.3862 102.142 40.4572 104.362C40.485 105.231 40.4875 106.167 39.9293 106.914C39.4804 107.515 38.9428 108.055 38.4103 108.588C38.0698 108.928 37.6722 109.168 37.1312 108.968C36.7083 108.812 36.4056 108.976 36.1947 109.403C35.8528 110.095 35.5497 110.82 34.9683 111.365C33.3343 112.897 32.4583 114.913 31.5794 116.893C30.7331 118.8 30.0916 120.798 29.3444 122.75C29.2514 122.993 29.256 123.344 28.8293 123.453C28.8833 122.605 29.2136 121.896 29.4304 121.165C29.9916 119.272 30.2995 117.297 31.3395 115.557C31.9695 114.504 32.516 113.413 33.3818 112.507C33.9376 111.925 34.4295 111.235 34.1407 110.304C33.5397 110.39 32.9718 110.52 32.3995 110.543C31.088 110.596 29.9431 110.931 29.0271 111.969C28.3935 112.686 27.537 112.932 26.5532 112.718C25.7134 112.535 24.8467 112.475 24.0071 112.291C23.4093 112.16 22.8707 112.153 22.3303 112.475C21.2178 113.137 20.0977 113.158 18.9879 112.453C18.9518 112.43 18.9087 112.418 18.8721 112.396C18.4171 112.119 18.0635 112.183 17.6981 112.608C16.9933 113.429 16.0606 113.8 15.0278 113.424C14.2371 113.137 13.7814 113.266 13.3132 113.97C12.8167 114.716 12.1319 114.787 11.6587 114.136C11.1363 113.418 10.5171 113.094 9.62733 113.143C10.1585 114.562 10.6889 115.992 11.2303 117.417C11.3322 117.685 11.4127 117.934 11.3096 118.226C10.6928 119.974 10.0876 121.725 9.47196 123.473C9.41367 123.638 9.40748 123.866 9.07407 123.899C9.237 121.526 10.3415 119.248 9.65803 116.682C9.4571 118.544 8.78677 120.111 8.17052 121.694C7.53132 123.337 7.26101 125.018 7.65917 126.762C7.89876 127.811 8.17771 128.848 8.52521 129.871C8.73545 130.49 9.11812 130.845 9.69443 131.059C11.5734 131.755 13.4954 131.932 15.476 131.602C18.5765 131.086 21.6828 130.606 24.7845 130.097C25.9291 129.909 27.1193 129.849 28.1872 129.386C32.737 127.417 37.2792 125.43 41.9318 123.713C44.3952 122.804 46.8333 121.767 49.4582 121.416C51.1191 121.194 52.8053 121.165 54.4791 121.034C56.6374 120.866 58.4062 119.969 59.7029 118.203C61.8156 115.324 62.7572 112.035 62.9126 108.53C63.1121 104.03 62.5265 99.5877 61.6086 95.1881C61.3404 93.9026 60.9671 92.6345 61.1608 91.2952C61.3275 90.1427 61.5502 89.0052 61.8917 87.8892C62.1941 86.9011 62.7078 86.6882 63.5557 87.2701C65.4399 88.5633 67.2809 89.9231 69.2046 91.154C71.6047 92.6896 73.8986 94.4702 76.8995 94.767C78.5319 94.9284 80.1413 95.2145 81.7111 94.4183C83.4419 93.5403 85.1899 92.6987 86.8148 91.6282C87.1601 91.4007 87.5088 91.1614 87.7216 90.8105C89.3562 88.1142 91.4085 85.6712 92.4212 82.5996C93.3457 79.7955 94.3835 77.037 94.5582 74.0454C94.5834 73.6137 94.4683 73.3552 94.1975 73.0875C93.0934 71.996 91.9809 70.9124 90.9002 69.7981C90.5715 69.4592 90.2462 69.3763 89.807 69.4823C88.7602 69.735 87.7116 69.9848 86.6552 70.1923C86.0129 70.3185 85.3883 70.5631 84.7388 70.5818C84.5935 70.2834 84.7795 70.1235 84.8855 69.9488C85.2769 69.3039 85.6582 68.6514 86.0803 68.0269C86.3192 67.6734 86.3239 67.3861 86.0902 67.029C85.7129 66.4523 85.384 65.8442 85.0283 65.2531C84.8918 65.0261 84.7963 64.807 84.8518 64.5241C84.9677 63.9335 85.0836 63.34 85.1447 62.742C85.3002 61.2191 85.3973 59.6735 84.1351 58.5147C82.4335 56.9523 80.5187 55.811 78.1093 55.749C76.8198 55.7157 75.6675 55.2805 74.6694 54.4437C73.8906 53.7907 73.197 53.054 72.4887 52.3289C70.7474 50.5459 68.7404 49.248 66.2116 48.8676C64.2576 48.5736 62.3083 48.5614 60.352 48.7916C58.3424 49.028 56.5773 49.7684 55.1341 51.2366C54.6231 51.7564 54.0372 52.2113 53.4459 52.6414C51.9671 53.717 50.6008 53.7563 49.1249 52.7934C48.4381 52.3454 47.6996 51.9153 47.2118 51.2652C46.3397 50.1029 45.2951 49.9252 43.9975 50.3651C43.602 50.4992 43.147 50.5985 42.5454 50.4125C43.137 49.8548 43.6823 49.4093 44.1413 48.8879C44.5699 48.4009 44.9478 48.4127 45.4881 48.6993C46.5541 49.2649 47.6939 49.6676 48.8253 50.091C50.9216 50.8753 52.8113 50.5699 54.6389 49.2991C56.256 48.1745 58.1288 47.627 60.05 47.2864C61.6817 46.997 63.3278 46.7871 64.9832 46.6823C68.3934 46.4663 71.4525 47.1429 73.707 50.0111C74.9732 51.6219 76.6685 52.6843 78.5306 53.5056C79.9104 54.1142 81.3111 54.6774 82.642 55.3961C84.7051 56.5104 86.1712 58.083 86.8463 60.392C87.4055 62.3046 87.7225 64.2512 87.9737 66.2163C88.0044 66.456 88.0174 66.6783 88.2338 66.8449C89.5038 67.8228 90.7984 68.8175 92.3965 69.1185C93.7846 69.38 94.7485 70.1168 95.5297 71.2003C96.2987 72.2668 97.0232 73.3667 97.8216 74.4103C98.5054 75.3041 99.2188 75.473 100.287 75.1287C100.719 74.9895 101.139 74.8242 101.522 74.5736C105.645 71.8711 109.054 68.4782 111.469 64.1526C112.578 62.1655 113.466 60.0781 113.531 57.7541C113.598 55.3409 113.535 52.9324 113.081 50.546C113.004 50.1394 112.832 49.6939 113.026 49.2116C113.436 49.5391 113.375 49.9929 113.441 50.3639C113.825 52.518 114.577 54.6219 114.365 56.8616C114.304 57.5046 114.266 58.1498 114.22 58.7942C114.028 61.4892 113.289 63.9857 111.729 66.2385C109.352 69.6731 106.441 72.5919 103.256 75.2616C102.513 75.8851 101.784 76.4867 100.793 76.7355C99.4576 77.0706 98.1533 77.5289 96.8309 77.9179C96.4381 78.0335 96.1506 78.2279 95.9352 78.5915C95.1441 79.9267 94.3264 81.2461 93.5192 82.5717C93.3546 82.842 93.1919 83.1135 93.0284 83.3844C93.4824 83.0736 93.852 82.7095 94.2598 82.395C95.1213 81.7306 96.0498 81.5082 97.1031 81.9684C97.7378 82.2457 98.3658 82.5384 98.9434 82.909C101.154 84.3276 103.477 84.2336 105.836 83.4332C108.161 82.6443 109.734 80.9278 111.012 78.9378C113.668 74.8025 114.938 70.2126 115.361 65.3506C115.614 62.4482 115.599 59.5374 115.704 56.6306C115.81 53.6764 115.679 50.7243 115.34 47.7869C115.115 45.8394 114.795 43.9071 114.148 42.043C113.489 40.1461 112.694 38.3082 111.829 36.4983C111.71 36.2504 111.513 36.008 111.602 35.6267C116.341 42.4767 117.427 50.1566 117.225 58.1604C117.491 57.3268 117.449 56.4627 117.514 55.6182C117.915 50.362 117.123 45.2711 115.359 40.3097C113.996 36.4784 112.256 32.8282 110.289 29.2778C107.825 24.8303 105.041 20.6025 101.544 16.8929C96.3388 11.3722 90.1248 7.35473 83.056 4.62201C79.6581 3.30842 76.1787 2.61546 72.5157 2.68955C68.5504 2.76975 64.5836 2.87969 60.6157 2.8136C57.983 2.76975 55.3559 2.92848 52.7479 3.26864C49.4325 3.70109 46.1799 4.44873 42.9827 5.4339C38.3889 6.84944 33.9969 8.7231 29.9176 11.278C25.057 14.3222 20.9753 18.2205 17.5062 22.7738C15.274 25.7036 13.5363 28.8634 12.7898 32.522C12.1413 35.7 11.1897 38.7826 9.61532 41.6458C8.40941 43.8388 7.41713 46.1358 6.36711 48.4045C6.15355 48.866 6.05227 49.3289 6.07574 49.8403C6.13915 51.2219 6.34434 52.5334 6.97647 53.8184C7.62051 55.1276 8.35316 56.2791 9.58439 57.0943C9.90893 57.3091 10.1492 57.3321 10.4545 57.1177C10.7644 56.9001 10.6674 56.64 10.5701 56.3697C10.3441 55.7419 10.0276 55.1512 9.85413 54.5001C9.52411 53.2613 9.57908 53.0418 10.6193 52.3385C10.9639 52.1055 11.1853 51.8233 11.2578 51.4154C11.3632 50.8223 11.4716 50.2296 11.5897 49.6389C11.6416 49.3795 11.6112 49.0797 11.8854 48.8834C12.2407 49.1013 12.5932 49.3532 12.6289 49.7462C12.6872 50.388 13.0768 50.5472 13.6019 50.6665C14.4998 50.8706 15.4354 50.94 16.2524 51.4443C18.7355 52.9771 21.5259 54.048 23.5233 56.3093C23.7938 56.6156 24.0951 56.5803 24.4459 56.3722C24.8359 56.1407 25.1986 55.8204 25.6713 55.7639C25.771 55.9593 25.6581 56.0564 25.5703 56.1365C24.9405 56.7118 24.9018 57.3912 25.1884 58.1408C25.2729 58.3617 25.3243 58.595 25.3972 58.8205C26.2164 61.3526 26.3445 63.9133 25.8788 66.5396C25.1491 70.654 22.7331 73.3947 19.053 75.1229C16.7555 76.2019 15.0515 75.7136 13.615 73.6511C13.1964 73.0501 12.7841 72.4405 12.4242 71.8036C11.0555 69.3817 10.3627 66.8549 11.1506 64.0585C11.5666 62.5818 11.7819 61.0809 11.3895 59.5285C11.2244 58.8753 10.8721 58.7232 10.3176 58.6547C10.179 58.9054 10.1983 59.1477 10.2169 59.3763C10.2857 60.2191 10.0436 60.9039 9.44211 61.5414C8.89767 62.1185 8.58122 62.8532 8.51208 63.6961C8.46822 64.2309 8.46049 64.8482 7.95077 65.2246C7.4018 65.6299 7.08364 66.153 6.93173 66.8168C6.83159 67.2544 6.65041 67.6761 6.47889 68.0941C6.09437 69.031 5.66306 69.9499 5.30997 70.8982C5.09209 71.4834 4.92508 72.1481 5.459 72.6527C5.92614 73.0941 6.25824 73.6063 6.55494 74.1582C6.9742 74.9379 7.43603 75.6814 8.0457 76.3392C9.32567 77.7204 10.4214 79.2437 11.3147 80.9024C12.5437 83.1843 12.9514 85.5596 12.0467 88.0669C11.6678 89.117 11.0519 89.9698 10.0799 90.5475C9.28797 91.0182 8.47018 91.2505 7.45661 90.6773C7.76098 91.7708 7.81696 92.6685 7.55347 93.593C7.28517 94.5344 6.87508 95.4089 6.46574 96.2857C6.11985 97.0266 6.447 97.676 6.66946 98.3424C6.8285 98.8189 7.3131 98.572 7.6208 98.7291C7.73357 98.7866 7.89785 98.7657 7.98832 98.8411C8.86347 99.5698 9.78337 99.3508 10.7158 98.9958C10.8158 98.9577 10.9242 98.9412 11.0292 98.9169C12.1477 98.6573 13.1825 98.6541 13.8507 99.8163C14.054 100.17 14.3336 100.239 14.7246 100.081C15.1701 99.9001 15.6615 99.8151 16.1028 100.065C16.4905 100.285 16.6766 100.104 16.9118 99.8363C17.9805 98.6183 18.3882 97.1289 18.6812 95.5929C19.1717 93.0223 19.2597 90.4171 19.337 87.8109C19.3434 87.5958 19.2438 87.3318 19.5142 87.1731C19.8053 87.3292 19.7646 87.61 19.78 87.8546C19.8057 88.2632 19.7778 88.6762 19.8204 89.0824C20.1 91.7446 19.9619 94.3676 19.2265 96.9582C18.8935 98.1309 18.3531 99.2057 17.848 100.299C17.6175 100.798 17.8123 100.993 18.2559 101.156C18.5513 101.265 18.7519 101.14 18.9759 101.01C19.3809 100.776 19.8292 100.586 20.2654 100.821C21.3768 101.417 22.3817 101.258 23.4213 100.608C24.2091 100.115 25.0729 99.7505 26.0448 100.184C26.6555 100.457 26.8892 100.144 26.997 99.5697C27.1943 98.5181 27.0926 97.462 27.0752 96.41C27.0481 94.7741 26.7301 93.1754 26.3861 91.5781C25.2688 91.8773 25.2605 91.8829 24.5955 90.8942C24.2107 90.3221 23.8354 89.7412 23.4971 89.1411C23.1794 88.5774 22.7725 88.1283 22.1842 87.8511C20.9402 87.2651 19.9988 86.3415 19.2129 85.2304C18.8025 84.6502 18.3478 84.1008 17.9021 83.5465C17.7729 83.3859 17.6884 83.163 17.3147 83.1054C16.8629 84.1419 16.134 85.0761 16.0207 86.3086C15.8986 87.636 15.8289 88.9862 15.5169 90.2732C15.1684 91.7111 14.5774 93.0907 14.0795 94.4912C14.0241 94.6471 14.0266 94.8953 13.7507 94.889C13.6204 94.7194 13.6957 94.5527 13.7383 94.3895C13.9723 93.4934 14.219 92.6004 14.4417 91.7015C14.7326 90.527 14.9006 89.3575 14.7381 88.1248C14.5362 86.5931 14.3654 85.0418 14.8192 83.5059C14.9894 82.9298 15.0956 82.332 15.1936 81.7379C15.3512 80.7836 14.8643 80.0206 13.9138 79.8217C13.3729 79.7084 12.9624 79.4563 12.6515 79.0196C12.6515 79.0196 12.6918 78.98 12.7732 78.9632ZM36.2633 91.436C36.034 91.2086 35.7847 90.9978 35.5786 90.751C34.5208 89.4846 33.1849 88.9896 31.5603 89.2658C31.5181 89.273 31.4744 89.273 31.4314 89.2735C31.0709 89.2781 30.7515 89.4086 30.4855 89.6383C29.3876 90.5863 28.5021 91.6896 28.2013 93.1451C27.719 95.4795 27.8386 97.8046 28.4208 100.11C28.4451 100.206 28.4565 100.329 28.6573 100.337C29.0304 100.009 29.452 99.6732 29.8324 99.2963C30.8148 98.3231 31.928 97.7453 33.359 98.0172C33.7574 98.0929 34.0482 97.9095 34.3261 97.6295C35.1694 96.7798 35.9429 95.8502 37.211 95.5532C37.6688 95.446 38.134 95.5195 38.663 95.3914C37.9783 93.9894 37.4132 92.5941 36.2633 91.436ZM87.9138 93.423C86.7668 93.8949 85.6198 94.3667 84.4728 94.8386C84.9782 94.7924 85.4639 94.6983 85.9444 94.5829C89.1741 93.8071 92.3189 92.7621 95.4234 91.5889C100.536 89.6569 105.339 87.2 109.467 83.5363C111.86 81.4127 113.823 78.0883 114.138 75.2664C113.65 76.6886 113.034 77.9212 112.361 79.1221C110.354 82.7003 107.646 85.422 103.46 86.3068C100.192 86.9976 97.2883 88.555 94.3657 90.0857C92.2501 91.1937 90.2538 92.5339 87.9138 93.423ZM28.1637 101.861C27.4366 101.173 26.5074 101.113 25.5848 101.031C24.7849 100.96 24.2077 101.297 23.8442 101.998C23.1769 103.287 23.0133 104.632 23.3995 106.042C23.6602 106.993 23.6493 106.991 24.6045 106.774C25.1197 106.657 25.6178 106.324 26.1666 106.537C27.1006 106.899 27.8523 106.482 28.5668 105.99C29.0845 105.634 29.3718 105.134 29.2986 104.447C29.1967 103.49 28.7705 102.689 28.1637 101.861ZM13.7932 103.027C13.5497 102.106 12.9366 101.458 12.2192 100.882C11.8804 100.61 11.5848 100.616 11.3569 100.993C10.6418 102.177 9.671 103.239 9.66491 104.755C9.66269 105.309 9.53666 105.863 9.45445 106.416C9.41944 106.651 9.49906 106.824 9.64518 107.003C10.066 107.517 10.5565 107.838 11.2598 107.72C12.0228 107.591 12.9618 107.808 13.393 106.948C13.9953 105.745 14.3808 104.474 13.7932 103.027ZM9.78631 58.8107C9.96373 58.1179 9.3474 58.2409 9.02991 58.1314C8.70062 58.018 8.69241 58.3205 8.66141 58.5708C8.41825 60.5342 7.80398 62.3349 6.31182 63.7279C5.33682 64.6381 4.34577 65.531 3.3668 66.437C3.19492 66.5961 2.99187 66.7555 2.89741 66.9586C2.32825 68.1822 2.98448 70.1277 4.22044 70.8793C5.45025 69.6367 6.11835 68.0988 6.52058 66.4263C6.70654 65.6531 6.79763 64.8239 7.28469 64.1858C8.49698 62.5978 9.20103 60.7883 9.78631 58.8107ZM35.0784 98.8664C34.9904 100.035 35.3052 101.119 35.7599 102.176C35.8627 102.415 36.0532 102.531 36.2883 102.61C37.8442 103.132 39.1765 102.266 39.31 100.643C39.3206 100.515 39.3485 100.387 39.3509 100.258C39.3699 99.2505 39.5268 98.2422 39.3065 97.2358C39.2104 96.7969 38.9888 96.6099 38.5308 96.6956C37.1295 96.9581 35.7988 97.3283 35.0784 98.8664ZM34.3767 101.084C33.9839 100.595 33.5972 100.058 32.8936 100.072C32.2504 100.085 31.6097 100.221 31.0035 100.442C30.0786 100.78 29.6613 101.558 29.8853 102.522C30.0358 103.169 30.2275 103.807 30.4249 104.442C30.6856 105.281 31.1052 105.437 31.8882 105.022C32.7225 104.58 33.5575 104.151 34.4902 103.927C35.3205 103.728 35.6293 102.824 35.1445 102.153C34.9053 101.822 34.6695 101.489 34.3767 101.084ZM23.3945 108.196C22.7502 108.58 22.5957 109.046 22.8196 110.033C22.9125 110.442 22.9402 110.907 23.4745 111.044C24.9764 111.429 26.4624 111.834 27.9406 110.902C28.5237 110.535 29.0166 109.462 28.764 108.816C28.7031 108.661 28.592 108.57 28.4452 108.522C26.8229 107.988 25.1922 107.56 23.3945 108.196ZM15.6029 102.227C15.4583 102.44 15.3343 102.671 15.1654 102.863C14.256 103.895 14.6034 105.072 14.7598 106.228C14.7818 106.39 14.899 106.482 15.0269 106.571C15.9045 107.183 17.1714 107.073 17.7233 106.176C18.7314 104.538 19.0013 103.81 17.5635 102.367C17.4726 102.276 17.3845 102.181 17.2915 102.092C16.5878 101.418 16.3172 101.429 15.6029 102.227ZM7.18938 101.571C6.48432 103.109 6.45012 104.784 6.20424 106.415C6.14048 106.837 6.76498 107.48 7.25868 107.563C7.81251 107.657 8.30395 107.431 8.48105 106.932C8.83184 105.944 9.19138 104.942 9.24565 103.88C9.28208 103.167 9.11358 102.467 8.95957 101.773C8.8284 101.182 8.33755 101.047 7.84063 100.953C7.4365 100.876 7.3418 101.2 7.18938 101.571ZM30.724 109.189C30.9165 109.21 31.1096 109.253 31.3013 109.247C31.9665 109.228 32.6644 109.417 33.2907 109.181C34.4264 108.753 35.0096 107.47 34.7083 106.277C34.5206 105.534 34.2967 105.406 33.564 105.667C32.8935 105.905 32.2282 106.186 31.51 106.201C30.7688 106.217 30.2737 106.539 30.0311 107.223C29.768 107.965 29.9771 108.603 30.724 109.189ZM16.8058 112.119C17.1417 111.726 17.4735 111.33 17.8151 110.941C17.9997 110.732 18.0683 110.495 18.031 110.224C17.9574 109.691 17.8784 109.158 17.8039 108.625C17.7545 108.271 17.5213 108.097 17.2142 108.223C16.4326 108.545 15.6927 108.414 14.9535 108.118C14.5558 107.959 14.3609 108.105 14.2419 108.497C13.8705 109.718 14.0945 110.834 14.8123 111.862C15.3079 112.572 16.1656 112.708 16.8058 112.119ZM21.4792 106.677C22.0646 105.954 22.0049 105.015 22.3058 104.195C22.54 103.556 22.1643 102.86 21.5267 102.655C20.0554 102.181 19.2745 102.646 19.0194 104.42C18.9374 104.99 19.1073 105.584 19.092 106.152C19.0643 107.178 19.4178 107.274 20.4565 107.223C20.8481 107.203 21.1489 107.015 21.4792 106.677ZM18.8966 111.09C19.5668 111.98 20.8294 112.102 21.4712 111.34C21.9861 110.728 22.1309 109.129 21.7465 108.399C21.6114 108.143 21.426 108.183 21.2015 108.248C20.8112 108.36 20.4183 108.498 20.0181 108.535C18.7693 108.652 18.7407 108.66 18.7323 109.914C18.7299 110.277 18.7252 110.644 18.8966 111.09ZM37.3802 103.77C36.3144 104.05 35.6532 104.977 35.6975 106.129C35.727 106.896 35.896 107.038 36.6538 107.084C37.1455 107.114 37.5115 106.998 37.825 106.589C38.2028 106.096 38.6259 105.631 39.0737 105.199C39.4221 104.864 39.3596 104.542 39.232 104.149C39.0955 103.728 38.7874 103.747 38.4597 103.752C38.1372 103.758 37.8147 103.76 37.3802 103.77ZM12.693 112.513C12.9355 112.279 13.2921 112.127 13.3564 111.758C13.5112 110.871 13.2655 110.062 12.8003 109.312C12.6714 109.104 12.4857 109.062 12.2433 109.136C11.247 109.441 10.7373 110.454 11.1065 111.439C11.204 111.699 11.3205 111.953 11.4406 112.204C11.7788 112.91 11.8978 112.945 12.693 112.513ZM8.4717 111.212C8.83677 111.572 9.32356 111.627 9.7873 111.676C10.0876 111.708 10.4819 111.56 10.3417 111.173C10.0716 110.427 9.79594 109.667 9.32625 109.017C9.06409 108.654 8.63485 108.584 8.21106 108.697C7.81101 108.803 7.80603 109.19 7.78849 109.492C7.75211 110.12 8.03934 110.653 8.4717 111.212ZM5.7557 101.682C5.68105 102.701 5.60641 103.72 5.53176 104.739C6.21616 103.379 6.48353 101.985 6.02794 100.525C5.77189 100.847 5.83212 101.218 5.7557 101.682ZM10.3246 87.7454C10.3412 87.706 10.3675 87.6675 10.3716 87.6268C10.3751 87.5915 10.3534 87.5537 10.3325 87.4809C9.66769 88.2464 8.9937 88.9767 8.07485 89.4225C9.24991 89.4756 9.83511 88.7332 10.3246 87.7454ZM9.18645 113.601C9.23445 113.799 9.28246 113.997 9.33046 114.195C9.21553 113.625 9.3666 112.993 8.97415 112.489C8.86999 112.863 9.10331 113.167 9.18645 113.601Z"/>
</mask>
<path d="M119 59.2925C118.718 60.419 118.704 61.523 118.548 62.607C118.081 65.8678 117.525 69.1102 116.751 72.3134C116.165 74.7405 115.598 77.169 114.647 79.4942C113.639 81.9556 111.839 83.7643 109.887 85.4433C105.355 89.3417 100.051 91.8376 94.4673 93.8051C91.3995 94.886 88.3123 95.9157 85.1181 96.5548C82.1608 97.1466 79.1828 97.3143 76.2024 96.6571C74.5382 96.2902 73.0535 95.501 71.5829 94.6874C68.9747 93.2445 66.5991 91.4458 64.1388 89.7769C63.911 89.6224 63.6775 89.4764 63.3876 89.288C63.0024 90.1554 62.9853 91.017 62.8831 91.8592C62.7384 93.0514 63.2262 94.1449 63.4414 95.2792C63.9511 97.9658 64.3182 100.668 64.567 103.392C64.7303 105.181 64.7816 106.974 64.6623 108.751C64.3921 112.776 63.3324 116.556 60.6937 119.741C59.1057 121.657 57.0217 122.58 54.5681 122.797C52.3423 122.994 50.0754 122.885 47.9047 123.521C44.7805 124.436 41.7457 125.613 38.7351 126.843C35.5452 128.147 32.3687 129.485 29.2098 130.862C27.6773 131.53 26.0374 131.638 24.4369 131.935C21.1574 132.542 17.8618 133.063 14.5011 133.467C13.634 133.491 12.8118 133.491 11.8914 133.462C10.9633 133.209 10.1296 132.998 9.30464 132.756C8.08714 132.4 7.21681 131.679 6.87046 130.405C6.72398 129.866 6.51374 129.345 6.3497 128.81C5.7737 126.933 5.50263 125.024 5.92187 123.081C6.21772 121.709 6.79872 120.426 7.29048 119.117C7.86502 117.587 8.10525 116.054 7.59541 114.446C7.29602 113.502 6.95424 112.574 6.64125 111.636C6.19445 110.298 5.47389 109.205 4.26369 108.453C3.69486 108.1 3.49569 107.592 3.5548 106.915C3.79808 104.129 3.9575 101.333 4.25349 98.5526C4.39987 97.1775 4.57508 95.7858 5.32291 94.5364C5.99414 93.4149 6.06075 92.1693 5.73631 90.9092C5.6291 90.4928 5.50791 90.0784 5.36421 89.6734C5.13965 89.0403 5.38679 88.6275 5.94761 88.3604C6.47257 88.1104 7.0172 87.9007 7.53643 87.6399C8.76481 87.023 9.20861 86.1288 9.04753 84.7997C8.85077 83.1761 8.12404 81.7634 7.35956 80.3619C6.19704 78.2306 4.63714 76.3168 3.85782 73.9765C3.69424 73.4852 3.44389 73.1116 2.93799 72.8912C2.53615 72.7162 2.28465 72.3499 2.11842 71.931C1.75405 71.0128 1.37378 70.1009 1 69.1865C0.999999 68.6228 0.999999 68.0591 1.01732 67.3875C1.00241 66.2969 1.55943 65.6769 2.26989 65.0854C3.26233 64.2592 4.17822 63.3416 5.1403 62.4781C5.60019 62.0653 5.89535 61.5563 6.18021 61.0172C7.08288 59.3092 7.1741 57.6532 6.14288 55.9388C5.57947 55.0021 5.19002 53.9606 4.72501 52.9651C4.58825 52.6722 4.46287 52.3775 4.45253 52.0431C4.42455 51.1389 4.39227 50.2347 4.34768 49.3312C4.32805 48.9333 4.39689 48.5617 4.56489 48.2024C5.48646 46.2314 6.30932 44.207 7.34676 42.2991C9.11179 39.0533 10.3743 35.6527 11.1045 32.0324C11.5578 29.7849 12.3485 27.6407 13.5258 25.6588C17.0012 19.8083 21.5657 14.962 27.1244 11.0583C32.5482 7.24938 38.5766 4.75044 44.9486 3.04803C49.7097 1.77601 54.5535 1.05773 59.4944 1.08679C59.7935 1.08855 60.0998 1.12541 60.3882 1C65.5663 1 70.7444 1 76.0294 1.02134C77.3562 1.17538 78.5629 1.38538 79.7455 1.7131C84.3435 2.9873 88.6377 4.94521 92.6861 7.46119C97.9011 10.7021 102.401 14.7233 106.113 19.6266C108.813 23.1942 111.1 27.016 113.159 30.9767C115.118 34.7455 116.808 38.6321 117.933 42.7393C118.347 44.2503 118.648 45.7923 119 47.3202C119 51.2908 119 55.2613 119 59.2925ZM12.7732 78.9632C13.296 78.8799 13.5037 78.3211 13.9903 78.1224C14.5435 78.8029 14.9786 79.5826 15.8197 79.9269C16.7956 80.3264 17.4677 81.0165 18.0498 81.8977C19.0912 83.4744 20.1062 85.1032 21.8627 86.0378C22.5477 86.4022 23.2223 86.7876 23.8875 87.187C25.2558 88.0088 26.5452 87.7118 27.7485 86.8678C28.6113 86.2626 29.3823 85.528 30.2842 84.9716C30.7259 84.6991 31.1811 84.4745 31.718 84.4239C35.2527 84.0904 38.6445 83.3374 41.6139 81.2196C43.3899 79.953 45.4192 79.7031 47.545 79.9777C49.4915 80.2291 51.4456 80.5061 53.3126 81.0846C55.2365 81.6807 56.9261 81.499 58.5586 80.3308C59.6602 79.5426 60.9275 79.5175 62.2228 79.7004C63.4367 79.8717 64.6575 80.1268 65.8734 80.1169C67.2432 80.1058 68.6163 79.8757 69.9781 79.6743C71.3119 79.477 72.6352 79.4443 73.9696 79.628C74.4667 79.6964 74.7933 79.9295 74.9932 80.395C75.3587 81.2459 75.7782 82.0742 76.126 82.9318C76.3318 83.4393 76.6556 83.7355 77.1773 83.8745C77.9317 84.0756 78.6773 84.3098 79.4482 84.5362C79.2568 84.9228 78.9007 84.958 78.6117 85.0342C77.8815 85.2265 77.6637 85.7025 77.5971 86.4083C77.4955 87.4841 77.4579 88.5572 77.4621 89.6353C77.463 89.8524 77.5379 90.113 77.266 90.2707C77.0284 90.0641 76.9973 89.7705 76.9608 89.5069C76.7865 88.2445 76.4658 87.0164 76.1664 85.781C76.0169 85.1643 75.6926 84.7373 75.1748 84.4165C73.9453 83.6548 72.6768 82.968 71.3505 82.3885C70.9651 82.2201 70.583 82.1682 70.1563 82.2249C69.6731 82.2892 69.1838 82.4623 68.6872 82.2823C67.7265 81.934 66.8721 82.3947 65.9944 82.6495C65.7586 82.718 65.7323 82.9651 65.6918 83.1817C65.5332 84.0284 65.3692 84.874 65.2043 85.7194C65.1661 85.9155 65.2068 86.1659 64.9159 86.2088C64.7121 86.0992 64.7586 85.9095 64.7339 85.7467C64.5785 84.7259 64.4383 83.7024 64.2634 82.6849C64.106 81.7696 63.4934 81.1591 62.6724 80.8928C61.6091 80.5479 60.5379 80.7223 59.5136 81.1639C59.6127 81.588 59.8337 81.8049 59.9928 82.057C60.4174 82.7296 60.9318 83.371 60.9106 84.2245C60.8784 85.5179 60.7939 86.8205 60.4774 88.0687C60.0223 89.8638 59.5152 91.6455 59.1188 93.4563C58.6318 95.6806 58.601 97.8838 59.1933 100.104C59.7046 102.021 60.3893 103.881 60.9347 105.786C61.5473 107.925 61.8394 110.072 61.3407 112.29C60.7502 114.915 59.682 117.283 57.7162 119.161C56.5462 120.278 55.1407 120.928 53.4782 120.591C52.1093 120.314 50.9167 119.589 49.7305 118.881C49.5955 118.8 49.4054 118.734 49.4658 118.392C49.9296 118.602 50.3745 118.79 50.8073 119.003C51.8635 119.522 52.9786 119.882 54.1447 119.954C55.496 120.037 56.4613 119.273 57.2389 118.251C58.2137 116.969 58.8579 115.502 59.4974 114.043C60.5324 111.682 60.9421 109.237 60.3963 106.662C60.0062 104.821 59.352 103.064 58.8222 101.268C58.1479 98.9828 57.6776 96.7074 58.2295 94.2814C58.6894 92.2598 59.2532 90.2722 59.8873 88.3093C60.4918 86.438 60.1023 84.643 59.7868 82.8246C59.7044 82.3496 58.8546 81.9552 58.5715 82.2296C58.1927 82.5969 57.7732 82.9349 57.6279 83.5061C56.7713 86.8727 55.5003 90.1057 54.3746 93.384C53.5823 95.6912 53.2332 98.0113 53.5233 100.435C53.6206 101.249 53.6273 102.074 53.6771 102.922C53.3465 102.847 53.3132 102.639 53.2677 102.46C53.0084 101.438 52.7716 100.409 52.5036 99.3894C51.9406 97.2466 52.1241 95.1773 53.0084 93.1455C53.644 91.6853 54.3064 90.2306 54.6692 88.6671C54.9054 87.6491 55.1438 86.6317 55.4026 85.5225C55.1609 85.5995 55.0355 85.6246 54.923 85.6775C53.729 86.2388 52.4688 86.6078 51.2128 86.9973C50.2324 87.3014 49.3935 87.1957 48.5428 86.5701C46.8937 85.3574 45.2136 84.1819 43.5698 82.9651C42.3271 82.0452 41.2494 82.1556 40.0652 82.8926C39.2589 83.3944 38.4302 83.8474 37.5408 84.1943C36.4178 84.6322 36.0941 85.3448 36.2726 86.5442C36.5131 88.1599 37.39 89.4551 38.2206 90.7949C39.5292 92.9057 40.4685 95.1435 40.4003 97.7036C40.3412 99.923 40.3862 102.142 40.4572 104.362C40.485 105.231 40.4875 106.167 39.9293 106.914C39.4804 107.515 38.9428 108.055 38.4103 108.588C38.0698 108.928 37.6722 109.168 37.1312 108.968C36.7083 108.812 36.4056 108.976 36.1947 109.403C35.8528 110.095 35.5497 110.82 34.9683 111.365C33.3343 112.897 32.4583 114.913 31.5794 116.893C30.7331 118.8 30.0916 120.798 29.3444 122.75C29.2514 122.993 29.256 123.344 28.8293 123.453C28.8833 122.605 29.2136 121.896 29.4304 121.165C29.9916 119.272 30.2995 117.297 31.3395 115.557C31.9695 114.504 32.516 113.413 33.3818 112.507C33.9376 111.925 34.4295 111.235 34.1407 110.304C33.5397 110.39 32.9718 110.52 32.3995 110.543C31.088 110.596 29.9431 110.931 29.0271 111.969C28.3935 112.686 27.537 112.932 26.5532 112.718C25.7134 112.535 24.8467 112.475 24.0071 112.291C23.4093 112.16 22.8707 112.153 22.3303 112.475C21.2178 113.137 20.0977 113.158 18.9879 112.453C18.9518 112.43 18.9087 112.418 18.8721 112.396C18.4171 112.119 18.0635 112.183 17.6981 112.608C16.9933 113.429 16.0606 113.8 15.0278 113.424C14.2371 113.137 13.7814 113.266 13.3132 113.97C12.8167 114.716 12.1319 114.787 11.6587 114.136C11.1363 113.418 10.5171 113.094 9.62733 113.143C10.1585 114.562 10.6889 115.992 11.2303 117.417C11.3322 117.685 11.4127 117.934 11.3096 118.226C10.6928 119.974 10.0876 121.725 9.47196 123.473C9.41367 123.638 9.40748 123.866 9.07407 123.899C9.237 121.526 10.3415 119.248 9.65803 116.682C9.4571 118.544 8.78677 120.111 8.17052 121.694C7.53132 123.337 7.26101 125.018 7.65917 126.762C7.89876 127.811 8.17771 128.848 8.52521 129.871C8.73545 130.49 9.11812 130.845 9.69443 131.059C11.5734 131.755 13.4954 131.932 15.476 131.602C18.5765 131.086 21.6828 130.606 24.7845 130.097C25.9291 129.909 27.1193 129.849 28.1872 129.386C32.737 127.417 37.2792 125.43 41.9318 123.713C44.3952 122.804 46.8333 121.767 49.4582 121.416C51.1191 121.194 52.8053 121.165 54.4791 121.034C56.6374 120.866 58.4062 119.969 59.7029 118.203C61.8156 115.324 62.7572 112.035 62.9126 108.53C63.1121 104.03 62.5265 99.5877 61.6086 95.1881C61.3404 93.9026 60.9671 92.6345 61.1608 91.2952C61.3275 90.1427 61.5502 89.0052 61.8917 87.8892C62.1941 86.9011 62.7078 86.6882 63.5557 87.2701C65.4399 88.5633 67.2809 89.9231 69.2046 91.154C71.6047 92.6896 73.8986 94.4702 76.8995 94.767C78.5319 94.9284 80.1413 95.2145 81.7111 94.4183C83.4419 93.5403 85.1899 92.6987 86.8148 91.6282C87.1601 91.4007 87.5088 91.1614 87.7216 90.8105C89.3562 88.1142 91.4085 85.6712 92.4212 82.5996C93.3457 79.7955 94.3835 77.037 94.5582 74.0454C94.5834 73.6137 94.4683 73.3552 94.1975 73.0875C93.0934 71.996 91.9809 70.9124 90.9002 69.7981C90.5715 69.4592 90.2462 69.3763 89.807 69.4823C88.7602 69.735 87.7116 69.9848 86.6552 70.1923C86.0129 70.3185 85.3883 70.5631 84.7388 70.5818C84.5935 70.2834 84.7795 70.1235 84.8855 69.9488C85.2769 69.3039 85.6582 68.6514 86.0803 68.0269C86.3192 67.6734 86.3239 67.3861 86.0902 67.029C85.7129 66.4523 85.384 65.8442 85.0283 65.2531C84.8918 65.0261 84.7963 64.807 84.8518 64.5241C84.9677 63.9335 85.0836 63.34 85.1447 62.742C85.3002 61.2191 85.3973 59.6735 84.1351 58.5147C82.4335 56.9523 80.5187 55.811 78.1093 55.749C76.8198 55.7157 75.6675 55.2805 74.6694 54.4437C73.8906 53.7907 73.197 53.054 72.4887 52.3289C70.7474 50.5459 68.7404 49.248 66.2116 48.8676C64.2576 48.5736 62.3083 48.5614 60.352 48.7916C58.3424 49.028 56.5773 49.7684 55.1341 51.2366C54.6231 51.7564 54.0372 52.2113 53.4459 52.6414C51.9671 53.717 50.6008 53.7563 49.1249 52.7934C48.4381 52.3454 47.6996 51.9153 47.2118 51.2652C46.3397 50.1029 45.2951 49.9252 43.9975 50.3651C43.602 50.4992 43.147 50.5985 42.5454 50.4125C43.137 49.8548 43.6823 49.4093 44.1413 48.8879C44.5699 48.4009 44.9478 48.4127 45.4881 48.6993C46.5541 49.2649 47.6939 49.6676 48.8253 50.091C50.9216 50.8753 52.8113 50.5699 54.6389 49.2991C56.256 48.1745 58.1288 47.627 60.05 47.2864C61.6817 46.997 63.3278 46.7871 64.9832 46.6823C68.3934 46.4663 71.4525 47.1429 73.707 50.0111C74.9732 51.6219 76.6685 52.6843 78.5306 53.5056C79.9104 54.1142 81.3111 54.6774 82.642 55.3961C84.7051 56.5104 86.1712 58.083 86.8463 60.392C87.4055 62.3046 87.7225 64.2512 87.9737 66.2163C88.0044 66.456 88.0174 66.6783 88.2338 66.8449C89.5038 67.8228 90.7984 68.8175 92.3965 69.1185C93.7846 69.38 94.7485 70.1168 95.5297 71.2003C96.2987 72.2668 97.0232 73.3667 97.8216 74.4103C98.5054 75.3041 99.2188 75.473 100.287 75.1287C100.719 74.9895 101.139 74.8242 101.522 74.5736C105.645 71.8711 109.054 68.4782 111.469 64.1526C112.578 62.1655 113.466 60.0781 113.531 57.7541C113.598 55.3409 113.535 52.9324 113.081 50.546C113.004 50.1394 112.832 49.6939 113.026 49.2116C113.436 49.5391 113.375 49.9929 113.441 50.3639C113.825 52.518 114.577 54.6219 114.365 56.8616C114.304 57.5046 114.266 58.1498 114.22 58.7942C114.028 61.4892 113.289 63.9857 111.729 66.2385C109.352 69.6731 106.441 72.5919 103.256 75.2616C102.513 75.8851 101.784 76.4867 100.793 76.7355C99.4576 77.0706 98.1533 77.5289 96.8309 77.9179C96.4381 78.0335 96.1506 78.2279 95.9352 78.5915C95.1441 79.9267 94.3264 81.2461 93.5192 82.5717C93.3546 82.842 93.1919 83.1135 93.0284 83.3844C93.4824 83.0736 93.852 82.7095 94.2598 82.395C95.1213 81.7306 96.0498 81.5082 97.1031 81.9684C97.7378 82.2457 98.3658 82.5384 98.9434 82.909C101.154 84.3276 103.477 84.2336 105.836 83.4332C108.161 82.6443 109.734 80.9278 111.012 78.9378C113.668 74.8025 114.938 70.2126 115.361 65.3506C115.614 62.4482 115.599 59.5374 115.704 56.6306C115.81 53.6764 115.679 50.7243 115.34 47.7869C115.115 45.8394 114.795 43.9071 114.148 42.043C113.489 40.1461 112.694 38.3082 111.829 36.4983C111.71 36.2504 111.513 36.008 111.602 35.6267C116.341 42.4767 117.427 50.1566 117.225 58.1604C117.491 57.3268 117.449 56.4627 117.514 55.6182C117.915 50.362 117.123 45.2711 115.359 40.3097C113.996 36.4784 112.256 32.8282 110.289 29.2778C107.825 24.8303 105.041 20.6025 101.544 16.8929C96.3388 11.3722 90.1248 7.35473 83.056 4.62201C79.6581 3.30842 76.1787 2.61546 72.5157 2.68955C68.5504 2.76975 64.5836 2.87969 60.6157 2.8136C57.983 2.76975 55.3559 2.92848 52.7479 3.26864C49.4325 3.70109 46.1799 4.44873 42.9827 5.4339C38.3889 6.84944 33.9969 8.7231 29.9176 11.278C25.057 14.3222 20.9753 18.2205 17.5062 22.7738C15.274 25.7036 13.5363 28.8634 12.7898 32.522C12.1413 35.7 11.1897 38.7826 9.61532 41.6458C8.40941 43.8388 7.41713 46.1358 6.36711 48.4045C6.15355 48.866 6.05227 49.3289 6.07574 49.8403C6.13915 51.2219 6.34434 52.5334 6.97647 53.8184C7.62051 55.1276 8.35316 56.2791 9.58439 57.0943C9.90893 57.3091 10.1492 57.3321 10.4545 57.1177C10.7644 56.9001 10.6674 56.64 10.5701 56.3697C10.3441 55.7419 10.0276 55.1512 9.85413 54.5001C9.52411 53.2613 9.57908 53.0418 10.6193 52.3385C10.9639 52.1055 11.1853 51.8233 11.2578 51.4154C11.3632 50.8223 11.4716 50.2296 11.5897 49.6389C11.6416 49.3795 11.6112 49.0797 11.8854 48.8834C12.2407 49.1013 12.5932 49.3532 12.6289 49.7462C12.6872 50.388 13.0768 50.5472 13.6019 50.6665C14.4998 50.8706 15.4354 50.94 16.2524 51.4443C18.7355 52.9771 21.5259 54.048 23.5233 56.3093C23.7938 56.6156 24.0951 56.5803 24.4459 56.3722C24.8359 56.1407 25.1986 55.8204 25.6713 55.7639C25.771 55.9593 25.6581 56.0564 25.5703 56.1365C24.9405 56.7118 24.9018 57.3912 25.1884 58.1408C25.2729 58.3617 25.3243 58.595 25.3972 58.8205C26.2164 61.3526 26.3445 63.9133 25.8788 66.5396C25.1491 70.654 22.7331 73.3947 19.053 75.1229C16.7555 76.2019 15.0515 75.7136 13.615 73.6511C13.1964 73.0501 12.7841 72.4405 12.4242 71.8036C11.0555 69.3817 10.3627 66.8549 11.1506 64.0585C11.5666 62.5818 11.7819 61.0809 11.3895 59.5285C11.2244 58.8753 10.8721 58.7232 10.3176 58.6547C10.179 58.9054 10.1983 59.1477 10.2169 59.3763C10.2857 60.2191 10.0436 60.9039 9.44211 61.5414C8.89767 62.1185 8.58122 62.8532 8.51208 63.6961C8.46822 64.2309 8.46049 64.8482 7.95077 65.2246C7.4018 65.6299 7.08364 66.153 6.93173 66.8168C6.83159 67.2544 6.65041 67.6761 6.47889 68.0941C6.09437 69.031 5.66306 69.9499 5.30997 70.8982C5.09209 71.4834 4.92508 72.1481 5.459 72.6527C5.92614 73.0941 6.25824 73.6063 6.55494 74.1582C6.9742 74.9379 7.43603 75.6814 8.0457 76.3392C9.32567 77.7204 10.4214 79.2437 11.3147 80.9024C12.5437 83.1843 12.9514 85.5596 12.0467 88.0669C11.6678 89.117 11.0519 89.9698 10.0799 90.5475C9.28797 91.0182 8.47018 91.2505 7.45661 90.6773C7.76098 91.7708 7.81696 92.6685 7.55347 93.593C7.28517 94.5344 6.87508 95.4089 6.46574 96.2857C6.11985 97.0266 6.447 97.676 6.66946 98.3424C6.8285 98.8189 7.3131 98.572 7.6208 98.7291C7.73357 98.7866 7.89785 98.7657 7.98832 98.8411C8.86347 99.5698 9.78337 99.3508 10.7158 98.9958C10.8158 98.9577 10.9242 98.9412 11.0292 98.9169C12.1477 98.6573 13.1825 98.6541 13.8507 99.8163C14.054 100.17 14.3336 100.239 14.7246 100.081C15.1701 99.9001 15.6615 99.8151 16.1028 100.065C16.4905 100.285 16.6766 100.104 16.9118 99.8363C17.9805 98.6183 18.3882 97.1289 18.6812 95.5929C19.1717 93.0223 19.2597 90.4171 19.337 87.8109C19.3434 87.5958 19.2438 87.3318 19.5142 87.1731C19.8053 87.3292 19.7646 87.61 19.78 87.8546C19.8057 88.2632 19.7778 88.6762 19.8204 89.0824C20.1 91.7446 19.9619 94.3676 19.2265 96.9582C18.8935 98.1309 18.3531 99.2057 17.848 100.299C17.6175 100.798 17.8123 100.993 18.2559 101.156C18.5513 101.265 18.7519 101.14 18.9759 101.01C19.3809 100.776 19.8292 100.586 20.2654 100.821C21.3768 101.417 22.3817 101.258 23.4213 100.608C24.2091 100.115 25.0729 99.7505 26.0448 100.184C26.6555 100.457 26.8892 100.144 26.997 99.5697C27.1943 98.5181 27.0926 97.462 27.0752 96.41C27.0481 94.7741 26.7301 93.1754 26.3861 91.5781C25.2688 91.8773 25.2605 91.8829 24.5955 90.8942C24.2107 90.3221 23.8354 89.7412 23.4971 89.1411C23.1794 88.5774 22.7725 88.1283 22.1842 87.8511C20.9402 87.2651 19.9988 86.3415 19.2129 85.2304C18.8025 84.6502 18.3478 84.1008 17.9021 83.5465C17.7729 83.3859 17.6884 83.163 17.3147 83.1054C16.8629 84.1419 16.134 85.0761 16.0207 86.3086C15.8986 87.636 15.8289 88.9862 15.5169 90.2732C15.1684 91.7111 14.5774 93.0907 14.0795 94.4912C14.0241 94.6471 14.0266 94.8953 13.7507 94.889C13.6204 94.7194 13.6957 94.5527 13.7383 94.3895C13.9723 93.4934 14.219 92.6004 14.4417 91.7015C14.7326 90.527 14.9006 89.3575 14.7381 88.1248C14.5362 86.5931 14.3654 85.0418 14.8192 83.5059C14.9894 82.9298 15.0956 82.332 15.1936 81.7379C15.3512 80.7836 14.8643 80.0206 13.9138 79.8217C13.3729 79.7084 12.9624 79.4563 12.6515 79.0196C12.6515 79.0196 12.6918 78.98 12.7732 78.9632ZM36.2633 91.436C36.034 91.2086 35.7847 90.9978 35.5786 90.751C34.5208 89.4846 33.1849 88.9896 31.5603 89.2658C31.5181 89.273 31.4744 89.273 31.4314 89.2735C31.0709 89.2781 30.7515 89.4086 30.4855 89.6383C29.3876 90.5863 28.5021 91.6896 28.2013 93.1451C27.719 95.4795 27.8386 97.8046 28.4208 100.11C28.4451 100.206 28.4565 100.329 28.6573 100.337C29.0304 100.009 29.452 99.6732 29.8324 99.2963C30.8148 98.3231 31.928 97.7453 33.359 98.0172C33.7574 98.0929 34.0482 97.9095 34.3261 97.6295C35.1694 96.7798 35.9429 95.8502 37.211 95.5532C37.6688 95.446 38.134 95.5195 38.663 95.3914C37.9783 93.9894 37.4132 92.5941 36.2633 91.436ZM87.9138 93.423C86.7668 93.8949 85.6198 94.3667 84.4728 94.8386C84.9782 94.7924 85.4639 94.6983 85.9444 94.5829C89.1741 93.8071 92.3189 92.7621 95.4234 91.5889C100.536 89.6569 105.339 87.2 109.467 83.5363C111.86 81.4127 113.823 78.0883 114.138 75.2664C113.65 76.6886 113.034 77.9212 112.361 79.1221C110.354 82.7003 107.646 85.422 103.46 86.3068C100.192 86.9976 97.2883 88.555 94.3657 90.0857C92.2501 91.1937 90.2538 92.5339 87.9138 93.423ZM28.1637 101.861C27.4366 101.173 26.5074 101.113 25.5848 101.031C24.7849 100.96 24.2077 101.297 23.8442 101.998C23.1769 103.287 23.0133 104.632 23.3995 106.042C23.6602 106.993 23.6493 106.991 24.6045 106.774C25.1197 106.657 25.6178 106.324 26.1666 106.537C27.1006 106.899 27.8523 106.482 28.5668 105.99C29.0845 105.634 29.3718 105.134 29.2986 104.447C29.1967 103.49 28.7705 102.689 28.1637 101.861ZM13.7932 103.027C13.5497 102.106 12.9366 101.458 12.2192 100.882C11.8804 100.61 11.5848 100.616 11.3569 100.993C10.6418 102.177 9.671 103.239 9.66491 104.755C9.66269 105.309 9.53666 105.863 9.45445 106.416C9.41944 106.651 9.49906 106.824 9.64518 107.003C10.066 107.517 10.5565 107.838 11.2598 107.72C12.0228 107.591 12.9618 107.808 13.393 106.948C13.9953 105.745 14.3808 104.474 13.7932 103.027ZM9.78631 58.8107C9.96373 58.1179 9.3474 58.2409 9.02991 58.1314C8.70062 58.018 8.69241 58.3205 8.66141 58.5708C8.41825 60.5342 7.80398 62.3349 6.31182 63.7279C5.33682 64.6381 4.34577 65.531 3.3668 66.437C3.19492 66.5961 2.99187 66.7555 2.89741 66.9586C2.32825 68.1822 2.98448 70.1277 4.22044 70.8793C5.45025 69.6367 6.11835 68.0988 6.52058 66.4263C6.70654 65.6531 6.79763 64.8239 7.28469 64.1858C8.49698 62.5978 9.20103 60.7883 9.78631 58.8107ZM35.0784 98.8664C34.9904 100.035 35.3052 101.119 35.7599 102.176C35.8627 102.415 36.0532 102.531 36.2883 102.61C37.8442 103.132 39.1765 102.266 39.31 100.643C39.3206 100.515 39.3485 100.387 39.3509 100.258C39.3699 99.2505 39.5268 98.2422 39.3065 97.2358C39.2104 96.7969 38.9888 96.6099 38.5308 96.6956C37.1295 96.9581 35.7988 97.3283 35.0784 98.8664ZM34.3767 101.084C33.9839 100.595 33.5972 100.058 32.8936 100.072C32.2504 100.085 31.6097 100.221 31.0035 100.442C30.0786 100.78 29.6613 101.558 29.8853 102.522C30.0358 103.169 30.2275 103.807 30.4249 104.442C30.6856 105.281 31.1052 105.437 31.8882 105.022C32.7225 104.58 33.5575 104.151 34.4902 103.927C35.3205 103.728 35.6293 102.824 35.1445 102.153C34.9053 101.822 34.6695 101.489 34.3767 101.084ZM23.3945 108.196C22.7502 108.58 22.5957 109.046 22.8196 110.033C22.9125 110.442 22.9402 110.907 23.4745 111.044C24.9764 111.429 26.4624 111.834 27.9406 110.902C28.5237 110.535 29.0166 109.462 28.764 108.816C28.7031 108.661 28.592 108.57 28.4452 108.522C26.8229 107.988 25.1922 107.56 23.3945 108.196ZM15.6029 102.227C15.4583 102.44 15.3343 102.671 15.1654 102.863C14.256 103.895 14.6034 105.072 14.7598 106.228C14.7818 106.39 14.899 106.482 15.0269 106.571C15.9045 107.183 17.1714 107.073 17.7233 106.176C18.7314 104.538 19.0013 103.81 17.5635 102.367C17.4726 102.276 17.3845 102.181 17.2915 102.092C16.5878 101.418 16.3172 101.429 15.6029 102.227ZM7.18938 101.571C6.48432 103.109 6.45012 104.784 6.20424 106.415C6.14048 106.837 6.76498 107.48 7.25868 107.563C7.81251 107.657 8.30395 107.431 8.48105 106.932C8.83184 105.944 9.19138 104.942 9.24565 103.88C9.28208 103.167 9.11358 102.467 8.95957 101.773C8.8284 101.182 8.33755 101.047 7.84063 100.953C7.4365 100.876 7.3418 101.2 7.18938 101.571ZM30.724 109.189C30.9165 109.21 31.1096 109.253 31.3013 109.247C31.9665 109.228 32.6644 109.417 33.2907 109.181C34.4264 108.753 35.0096 107.47 34.7083 106.277C34.5206 105.534 34.2967 105.406 33.564 105.667C32.8935 105.905 32.2282 106.186 31.51 106.201C30.7688 106.217 30.2737 106.539 30.0311 107.223C29.768 107.965 29.9771 108.603 30.724 109.189ZM16.8058 112.119C17.1417 111.726 17.4735 111.33 17.8151 110.941C17.9997 110.732 18.0683 110.495 18.031 110.224C17.9574 109.691 17.8784 109.158 17.8039 108.625C17.7545 108.271 17.5213 108.097 17.2142 108.223C16.4326 108.545 15.6927 108.414 14.9535 108.118C14.5558 107.959 14.3609 108.105 14.2419 108.497C13.8705 109.718 14.0945 110.834 14.8123 111.862C15.3079 112.572 16.1656 112.708 16.8058 112.119ZM21.4792 106.677C22.0646 105.954 22.0049 105.015 22.3058 104.195C22.54 103.556 22.1643 102.86 21.5267 102.655C20.0554 102.181 19.2745 102.646 19.0194 104.42C18.9374 104.99 19.1073 105.584 19.092 106.152C19.0643 107.178 19.4178 107.274 20.4565 107.223C20.8481 107.203 21.1489 107.015 21.4792 106.677ZM18.8966 111.09C19.5668 111.98 20.8294 112.102 21.4712 111.34C21.9861 110.728 22.1309 109.129 21.7465 108.399C21.6114 108.143 21.426 108.183 21.2015 108.248C20.8112 108.36 20.4183 108.498 20.0181 108.535C18.7693 108.652 18.7407 108.66 18.7323 109.914C18.7299 110.277 18.7252 110.644 18.8966 111.09ZM37.3802 103.77C36.3144 104.05 35.6532 104.977 35.6975 106.129C35.727 106.896 35.896 107.038 36.6538 107.084C37.1455 107.114 37.5115 106.998 37.825 106.589C38.2028 106.096 38.6259 105.631 39.0737 105.199C39.4221 104.864 39.3596 104.542 39.232 104.149C39.0955 103.728 38.7874 103.747 38.4597 103.752C38.1372 103.758 37.8147 103.76 37.3802 103.77ZM12.693 112.513C12.9355 112.279 13.2921 112.127 13.3564 111.758C13.5112 110.871 13.2655 110.062 12.8003 109.312C12.6714 109.104 12.4857 109.062 12.2433 109.136C11.247 109.441 10.7373 110.454 11.1065 111.439C11.204 111.699 11.3205 111.953 11.4406 112.204C11.7788 112.91 11.8978 112.945 12.693 112.513ZM8.4717 111.212C8.83677 111.572 9.32356 111.627 9.7873 111.676C10.0876 111.708 10.4819 111.56 10.3417 111.173C10.0716 110.427 9.79594 109.667 9.32625 109.017C9.06409 108.654 8.63485 108.584 8.21106 108.697C7.81101 108.803 7.80603 109.19 7.78849 109.492C7.75211 110.12 8.03934 110.653 8.4717 111.212ZM5.7557 101.682C5.68105 102.701 5.60641 103.72 5.53176 104.739C6.21616 103.379 6.48353 101.985 6.02794 100.525C5.77189 100.847 5.83212 101.218 5.7557 101.682ZM10.3246 87.7454C10.3412 87.706 10.3675 87.6675 10.3716 87.6268C10.3751 87.5915 10.3534 87.5537 10.3325 87.4809C9.66769 88.2464 8.9937 88.9767 8.07485 89.4225C9.24991 89.4756 9.83511 88.7332 10.3246 87.7454ZM9.18645 113.601C9.23445 113.799 9.28246 113.997 9.33046 114.195C9.21553 113.625 9.3666 112.993 8.97415 112.489C8.86999 112.863 9.10331 113.167 9.18645 113.601Z" fill="#A4A4A4"/>
<path d="M119 59.2925C118.718 60.419 118.704 61.523 118.548 62.607C118.081 65.8678 117.525 69.1102 116.751 72.3134C116.165 74.7405 115.598 77.169 114.647 79.4942C113.639 81.9556 111.839 83.7643 109.887 85.4433C105.355 89.3417 100.051 91.8376 94.4673 93.8051C91.3995 94.886 88.3123 95.9157 85.1181 96.5548C82.1608 97.1466 79.1828 97.3143 76.2024 96.6571C74.5382 96.2902 73.0535 95.501 71.5829 94.6874C68.9747 93.2445 66.5991 91.4458 64.1388 89.7769C63.911 89.6224 63.6775 89.4764 63.3876 89.288C63.0024 90.1554 62.9853 91.017 62.8831 91.8592C62.7384 93.0514 63.2262 94.1449 63.4414 95.2792C63.9511 97.9658 64.3182 100.668 64.567 103.392C64.7303 105.181 64.7816 106.974 64.6623 108.751C64.3921 112.776 63.3324 116.556 60.6937 119.741C59.1057 121.657 57.0217 122.58 54.5681 122.797C52.3423 122.994 50.0754 122.885 47.9047 123.521C44.7805 124.436 41.7457 125.613 38.7351 126.843C35.5452 128.147 32.3687 129.485 29.2098 130.862C27.6773 131.53 26.0374 131.638 24.4369 131.935C21.1574 132.542 17.8618 133.063 14.5011 133.467C13.634 133.491 12.8118 133.491 11.8914 133.462C10.9633 133.209 10.1296 132.998 9.30464 132.756C8.08714 132.4 7.21681 131.679 6.87046 130.405C6.72398 129.866 6.51374 129.345 6.3497 128.81C5.7737 126.933 5.50263 125.024 5.92187 123.081C6.21772 121.709 6.79872 120.426 7.29048 119.117C7.86502 117.587 8.10525 116.054 7.59541 114.446C7.29602 113.502 6.95424 112.574 6.64125 111.636C6.19445 110.298 5.47389 109.205 4.26369 108.453C3.69486 108.1 3.49569 107.592 3.5548 106.915C3.79808 104.129 3.9575 101.333 4.25349 98.5526C4.39987 97.1775 4.57508 95.7858 5.32291 94.5364C5.99414 93.4149 6.06075 92.1693 5.73631 90.9092C5.6291 90.4928 5.50791 90.0784 5.36421 89.6734C5.13965 89.0403 5.38679 88.6275 5.94761 88.3604C6.47257 88.1104 7.0172 87.9007 7.53643 87.6399C8.76481 87.023 9.20861 86.1288 9.04753 84.7997C8.85077 83.1761 8.12404 81.7634 7.35956 80.3619C6.19704 78.2306 4.63714 76.3168 3.85782 73.9765C3.69424 73.4852 3.44389 73.1116 2.93799 72.8912C2.53615 72.7162 2.28465 72.3499 2.11842 71.931C1.75405 71.0128 1.37378 70.1009 1 69.1865C0.999999 68.6228 0.999999 68.0591 1.01732 67.3875C1.00241 66.2969 1.55943 65.6769 2.26989 65.0854C3.26233 64.2592 4.17822 63.3416 5.1403 62.4781C5.60019 62.0653 5.89535 61.5563 6.18021 61.0172C7.08288 59.3092 7.1741 57.6532 6.14288 55.9388C5.57947 55.0021 5.19002 53.9606 4.72501 52.9651C4.58825 52.6722 4.46287 52.3775 4.45253 52.0431C4.42455 51.1389 4.39227 50.2347 4.34768 49.3312C4.32805 48.9333 4.39689 48.5617 4.56489 48.2024C5.48646 46.2314 6.30932 44.207 7.34676 42.2991C9.11179 39.0533 10.3743 35.6527 11.1045 32.0324C11.5578 29.7849 12.3485 27.6407 13.5258 25.6588C17.0012 19.8083 21.5657 14.962 27.1244 11.0583C32.5482 7.24938 38.5766 4.75044 44.9486 3.04803C49.7097 1.77601 54.5535 1.05773 59.4944 1.08679C59.7935 1.08855 60.0998 1.12541 60.3882 1C65.5663 1 70.7444 1 76.0294 1.02134C77.3562 1.17538 78.5629 1.38538 79.7455 1.7131C84.3435 2.9873 88.6377 4.94521 92.6861 7.46119C97.9011 10.7021 102.401 14.7233 106.113 19.6266C108.813 23.1942 111.1 27.016 113.159 30.9767C115.118 34.7455 116.808 38.6321 117.933 42.7393C118.347 44.2503 118.648 45.7923 119 47.3202C119 51.2908 119 55.2613 119 59.2925ZM12.7732 78.9632C13.296 78.8799 13.5037 78.3211 13.9903 78.1224C14.5435 78.8029 14.9786 79.5826 15.8197 79.9269C16.7956 80.3264 17.4677 81.0165 18.0498 81.8977C19.0912 83.4744 20.1062 85.1032 21.8627 86.0378C22.5477 86.4022 23.2223 86.7876 23.8875 87.187C25.2558 88.0088 26.5452 87.7118 27.7485 86.8678C28.6113 86.2626 29.3823 85.528 30.2842 84.9716C30.7259 84.6991 31.1811 84.4745 31.718 84.4239C35.2527 84.0904 38.6445 83.3374 41.6139 81.2196C43.3899 79.953 45.4192 79.7031 47.545 79.9777C49.4915 80.2291 51.4456 80.5061 53.3126 81.0846C55.2365 81.6807 56.9261 81.499 58.5586 80.3308C59.6602 79.5426 60.9275 79.5175 62.2228 79.7004C63.4367 79.8717 64.6575 80.1268 65.8734 80.1169C67.2432 80.1058 68.6163 79.8757 69.9781 79.6743C71.3119 79.477 72.6352 79.4443 73.9696 79.628C74.4667 79.6964 74.7933 79.9295 74.9932 80.395C75.3587 81.2459 75.7782 82.0742 76.126 82.9318C76.3318 83.4393 76.6556 83.7355 77.1773 83.8745C77.9317 84.0756 78.6773 84.3098 79.4482 84.5362C79.2568 84.9228 78.9007 84.958 78.6117 85.0342C77.8815 85.2265 77.6637 85.7025 77.5971 86.4083C77.4955 87.4841 77.4579 88.5572 77.4621 89.6353C77.463 89.8524 77.5379 90.113 77.266 90.2707C77.0284 90.0641 76.9973 89.7705 76.9608 89.5069C76.7865 88.2445 76.4658 87.0164 76.1664 85.781C76.0169 85.1643 75.6926 84.7373 75.1748 84.4165C73.9453 83.6548 72.6768 82.968 71.3505 82.3885C70.9651 82.2201 70.583 82.1682 70.1563 82.2249C69.6731 82.2892 69.1838 82.4623 68.6872 82.2823C67.7265 81.934 66.8721 82.3947 65.9944 82.6495C65.7586 82.718 65.7323 82.9651 65.6918 83.1817C65.5332 84.0284 65.3692 84.874 65.2043 85.7194C65.1661 85.9155 65.2068 86.1659 64.9159 86.2088C64.7121 86.0992 64.7586 85.9095 64.7339 85.7467C64.5785 84.7259 64.4383 83.7024 64.2634 82.6849C64.106 81.7696 63.4934 81.1591 62.6724 80.8928C61.6091 80.5479 60.5379 80.7223 59.5136 81.1639C59.6127 81.588 59.8337 81.8049 59.9928 82.057C60.4174 82.7296 60.9318 83.371 60.9106 84.2245C60.8784 85.5179 60.7939 86.8205 60.4774 88.0687C60.0223 89.8638 59.5152 91.6455 59.1188 93.4563C58.6318 95.6806 58.601 97.8838 59.1933 100.104C59.7046 102.021 60.3893 103.881 60.9347 105.786C61.5473 107.925 61.8394 110.072 61.3407 112.29C60.7502 114.915 59.682 117.283 57.7162 119.161C56.5462 120.278 55.1407 120.928 53.4782 120.591C52.1093 120.314 50.9167 119.589 49.7305 118.881C49.5955 118.8 49.4054 118.734 49.4658 118.392C49.9296 118.602 50.3745 118.79 50.8073 119.003C51.8635 119.522 52.9786 119.882 54.1447 119.954C55.496 120.037 56.4613 119.273 57.2389 118.251C58.2137 116.969 58.8579 115.502 59.4974 114.043C60.5324 111.682 60.9421 109.237 60.3963 106.662C60.0062 104.821 59.352 103.064 58.8222 101.268C58.1479 98.9828 57.6776 96.7074 58.2295 94.2814C58.6894 92.2598 59.2532 90.2722 59.8873 88.3093C60.4918 86.438 60.1023 84.643 59.7868 82.8246C59.7044 82.3496 58.8546 81.9552 58.5715 82.2296C58.1927 82.5969 57.7732 82.9349 57.6279 83.5061C56.7713 86.8727 55.5003 90.1057 54.3746 93.384C53.5823 95.6912 53.2332 98.0113 53.5233 100.435C53.6206 101.249 53.6273 102.074 53.6771 102.922C53.3465 102.847 53.3132 102.639 53.2677 102.46C53.0084 101.438 52.7716 100.409 52.5036 99.3894C51.9406 97.2466 52.1241 95.1773 53.0084 93.1455C53.644 91.6853 54.3064 90.2306 54.6692 88.6671C54.9054 87.6491 55.1438 86.6317 55.4026 85.5225C55.1609 85.5995 55.0355 85.6246 54.923 85.6775C53.729 86.2388 52.4688 86.6078 51.2128 86.9973C50.2324 87.3014 49.3935 87.1957 48.5428 86.5701C46.8937 85.3574 45.2136 84.1819 43.5698 82.9651C42.3271 82.0452 41.2494 82.1556 40.0652 82.8926C39.2589 83.3944 38.4302 83.8474 37.5408 84.1943C36.4178 84.6322 36.0941 85.3448 36.2726 86.5442C36.5131 88.1599 37.39 89.4551 38.2206 90.7949C39.5292 92.9057 40.4685 95.1435 40.4003 97.7036C40.3412 99.923 40.3862 102.142 40.4572 104.362C40.485 105.231 40.4875 106.167 39.9293 106.914C39.4804 107.515 38.9428 108.055 38.4103 108.588C38.0698 108.928 37.6722 109.168 37.1312 108.968C36.7083 108.812 36.4056 108.976 36.1947 109.403C35.8528 110.095 35.5497 110.82 34.9683 111.365C33.3343 112.897 32.4583 114.913 31.5794 116.893C30.7331 118.8 30.0916 120.798 29.3444 122.75C29.2514 122.993 29.256 123.344 28.8293 123.453C28.8833 122.605 29.2136 121.896 29.4304 121.165C29.9916 119.272 30.2995 117.297 31.3395 115.557C31.9695 114.504 32.516 113.413 33.3818 112.507C33.9376 111.925 34.4295 111.235 34.1407 110.304C33.5397 110.39 32.9718 110.52 32.3995 110.543C31.088 110.596 29.9431 110.931 29.0271 111.969C28.3935 112.686 27.537 112.932 26.5532 112.718C25.7134 112.535 24.8467 112.475 24.0071 112.291C23.4093 112.16 22.8707 112.153 22.3303 112.475C21.2178 113.137 20.0977 113.158 18.9879 112.453C18.9518 112.43 18.9087 112.418 18.8721 112.396C18.4171 112.119 18.0635 112.183 17.6981 112.608C16.9933 113.429 16.0606 113.8 15.0278 113.424C14.2371 113.137 13.7814 113.266 13.3132 113.97C12.8167 114.716 12.1319 114.787 11.6587 114.136C11.1363 113.418 10.5171 113.094 9.62733 113.143C10.1585 114.562 10.6889 115.992 11.2303 117.417C11.3322 117.685 11.4127 117.934 11.3096 118.226C10.6928 119.974 10.0876 121.725 9.47196 123.473C9.41367 123.638 9.40748 123.866 9.07407 123.899C9.237 121.526 10.3415 119.248 9.65803 116.682C9.4571 118.544 8.78677 120.111 8.17052 121.694C7.53132 123.337 7.26101 125.018 7.65917 126.762C7.89876 127.811 8.17771 128.848 8.52521 129.871C8.73545 130.49 9.11812 130.845 9.69443 131.059C11.5734 131.755 13.4954 131.932 15.476 131.602C18.5765 131.086 21.6828 130.606 24.7845 130.097C25.9291 129.909 27.1193 129.849 28.1872 129.386C32.737 127.417 37.2792 125.43 41.9318 123.713C44.3952 122.804 46.8333 121.767 49.4582 121.416C51.1191 121.194 52.8053 121.165 54.4791 121.034C56.6374 120.866 58.4062 119.969 59.7029 118.203C61.8156 115.324 62.7572 112.035 62.9126 108.53C63.1121 104.03 62.5265 99.5877 61.6086 95.1881C61.3404 93.9026 60.9671 92.6345 61.1608 91.2952C61.3275 90.1427 61.5502 89.0052 61.8917 87.8892C62.1941 86.9011 62.7078 86.6882 63.5557 87.2701C65.4399 88.5633 67.2809 89.9231 69.2046 91.154C71.6047 92.6896 73.8986 94.4702 76.8995 94.767C78.5319 94.9284 80.1413 95.2145 81.7111 94.4183C83.4419 93.5403 85.1899 92.6987 86.8148 91.6282C87.1601 91.4007 87.5088 91.1614 87.7216 90.8105C89.3562 88.1142 91.4085 85.6712 92.4212 82.5996C93.3457 79.7955 94.3835 77.037 94.5582 74.0454C94.5834 73.6137 94.4683 73.3552 94.1975 73.0875C93.0934 71.996 91.9809 70.9124 90.9002 69.7981C90.5715 69.4592 90.2462 69.3763 89.807 69.4823C88.7602 69.735 87.7116 69.9848 86.6552 70.1923C86.0129 70.3185 85.3883 70.5631 84.7388 70.5818C84.5935 70.2834 84.7795 70.1235 84.8855 69.9488C85.2769 69.3039 85.6582 68.6514 86.0803 68.0269C86.3192 67.6734 86.3239 67.3861 86.0902 67.029C85.7129 66.4523 85.384 65.8442 85.0283 65.2531C84.8918 65.0261 84.7963 64.807 84.8518 64.5241C84.9677 63.9335 85.0836 63.34 85.1447 62.742C85.3002 61.2191 85.3973 59.6735 84.1351 58.5147C82.4335 56.9523 80.5187 55.811 78.1093 55.749C76.8198 55.7157 75.6675 55.2805 74.6694 54.4437C73.8906 53.7907 73.197 53.054 72.4887 52.3289C70.7474 50.5459 68.7404 49.248 66.2116 48.8676C64.2576 48.5736 62.3083 48.5614 60.352 48.7916C58.3424 49.028 56.5773 49.7684 55.1341 51.2366C54.6231 51.7564 54.0372 52.2113 53.4459 52.6414C51.9671 53.717 50.6008 53.7563 49.1249 52.7934C48.4381 52.3454 47.6996 51.9153 47.2118 51.2652C46.3397 50.1029 45.2951 49.9252 43.9975 50.3651C43.602 50.4992 43.147 50.5985 42.5454 50.4125C43.137 49.8548 43.6823 49.4093 44.1413 48.8879C44.5699 48.4009 44.9478 48.4127 45.4881 48.6993C46.5541 49.2649 47.6939 49.6676 48.8253 50.091C50.9216 50.8753 52.8113 50.5699 54.6389 49.2991C56.256 48.1745 58.1288 47.627 60.05 47.2864C61.6817 46.997 63.3278 46.7871 64.9832 46.6823C68.3934 46.4663 71.4525 47.1429 73.707 50.0111C74.9732 51.6219 76.6685 52.6843 78.5306 53.5056C79.9104 54.1142 81.3111 54.6774 82.642 55.3961C84.7051 56.5104 86.1712 58.083 86.8463 60.392C87.4055 62.3046 87.7225 64.2512 87.9737 66.2163C88.0044 66.456 88.0174 66.6783 88.2338 66.8449C89.5038 67.8228 90.7984 68.8175 92.3965 69.1185C93.7846 69.38 94.7485 70.1168 95.5297 71.2003C96.2987 72.2668 97.0232 73.3667 97.8216 74.4103C98.5054 75.3041 99.2188 75.473 100.287 75.1287C100.719 74.9895 101.139 74.8242 101.522 74.5736C105.645 71.8711 109.054 68.4782 111.469 64.1526C112.578 62.1655 113.466 60.0781 113.531 57.7541C113.598 55.3409 113.535 52.9324 113.081 50.546C113.004 50.1394 112.832 49.6939 113.026 49.2116C113.436 49.5391 113.375 49.9929 113.441 50.3639C113.825 52.518 114.577 54.6219 114.365 56.8616C114.304 57.5046 114.266 58.1498 114.22 58.7942C114.028 61.4892 113.289 63.9857 111.729 66.2385C109.352 69.6731 106.441 72.5919 103.256 75.2616C102.513 75.8851 101.784 76.4867 100.793 76.7355C99.4576 77.0706 98.1533 77.5289 96.8309 77.9179C96.4381 78.0335 96.1506 78.2279 95.9352 78.5915C95.1441 79.9267 94.3264 81.2461 93.5192 82.5717C93.3546 82.842 93.1919 83.1135 93.0284 83.3844C93.4824 83.0736 93.852 82.7095 94.2598 82.395C95.1213 81.7306 96.0498 81.5082 97.1031 81.9684C97.7378 82.2457 98.3658 82.5384 98.9434 82.909C101.154 84.3276 103.477 84.2336 105.836 83.4332C108.161 82.6443 109.734 80.9278 111.012 78.9378C113.668 74.8025 114.938 70.2126 115.361 65.3506C115.614 62.4482 115.599 59.5374 115.704 56.6306C115.81 53.6764 115.679 50.7243 115.34 47.7869C115.115 45.8394 114.795 43.9071 114.148 42.043C113.489 40.1461 112.694 38.3082 111.829 36.4983C111.71 36.2504 111.513 36.008 111.602 35.6267C116.341 42.4767 117.427 50.1566 117.225 58.1604C117.491 57.3268 117.449 56.4627 117.514 55.6182C117.915 50.362 117.123 45.2711 115.359 40.3097C113.996 36.4784 112.256 32.8282 110.289 29.2778C107.825 24.8303 105.041 20.6025 101.544 16.8929C96.3388 11.3722 90.1248 7.35473 83.056 4.62201C79.6581 3.30842 76.1787 2.61546 72.5157 2.68955C68.5504 2.76975 64.5836 2.87969 60.6157 2.8136C57.983 2.76975 55.3559 2.92848 52.7479 3.26864C49.4325 3.70109 46.1799 4.44873 42.9827 5.4339C38.3889 6.84944 33.9969 8.7231 29.9176 11.278C25.057 14.3222 20.9753 18.2205 17.5062 22.7738C15.274 25.7036 13.5363 28.8634 12.7898 32.522C12.1413 35.7 11.1897 38.7826 9.61532 41.6458C8.40941 43.8388 7.41713 46.1358 6.36711 48.4045C6.15355 48.866 6.05227 49.3289 6.07574 49.8403C6.13915 51.2219 6.34434 52.5334 6.97647 53.8184C7.62051 55.1276 8.35316 56.2791 9.58439 57.0943C9.90893 57.3091 10.1492 57.3321 10.4545 57.1177C10.7644 56.9001 10.6674 56.64 10.5701 56.3697C10.3441 55.7419 10.0276 55.1512 9.85413 54.5001C9.52411 53.2613 9.57908 53.0418 10.6193 52.3385C10.9639 52.1055 11.1853 51.8233 11.2578 51.4154C11.3632 50.8223 11.4716 50.2296 11.5897 49.6389C11.6416 49.3795 11.6112 49.0797 11.8854 48.8834C12.2407 49.1013 12.5932 49.3532 12.6289 49.7462C12.6872 50.388 13.0768 50.5472 13.6019 50.6665C14.4998 50.8706 15.4354 50.94 16.2524 51.4443C18.7355 52.9771 21.5259 54.048 23.5233 56.3093C23.7938 56.6156 24.0951 56.5803 24.4459 56.3722C24.8359 56.1407 25.1986 55.8204 25.6713 55.7639C25.771 55.9593 25.6581 56.0564 25.5703 56.1365C24.9405 56.7118 24.9018 57.3912 25.1884 58.1408C25.2729 58.3617 25.3243 58.595 25.3972 58.8205C26.2164 61.3526 26.3445 63.9133 25.8788 66.5396C25.1491 70.654 22.7331 73.3947 19.053 75.1229C16.7555 76.2019 15.0515 75.7136 13.615 73.6511C13.1964 73.0501 12.7841 72.4405 12.4242 71.8036C11.0555 69.3817 10.3627 66.8549 11.1506 64.0585C11.5666 62.5818 11.7819 61.0809 11.3895 59.5285C11.2244 58.8753 10.8721 58.7232 10.3176 58.6547C10.179 58.9054 10.1983 59.1477 10.2169 59.3763C10.2857 60.2191 10.0436 60.9039 9.44211 61.5414C8.89767 62.1185 8.58122 62.8532 8.51208 63.6961C8.46822 64.2309 8.46049 64.8482 7.95077 65.2246C7.4018 65.6299 7.08364 66.153 6.93173 66.8168C6.83159 67.2544 6.65041 67.6761 6.47889 68.0941C6.09437 69.031 5.66306 69.9499 5.30997 70.8982C5.09209 71.4834 4.92508 72.1481 5.459 72.6527C5.92614 73.0941 6.25824 73.6063 6.55494 74.1582C6.9742 74.9379 7.43603 75.6814 8.0457 76.3392C9.32567 77.7204 10.4214 79.2437 11.3147 80.9024C12.5437 83.1843 12.9514 85.5596 12.0467 88.0669C11.6678 89.117 11.0519 89.9698 10.0799 90.5475C9.28797 91.0182 8.47018 91.2505 7.45661 90.6773C7.76098 91.7708 7.81696 92.6685 7.55347 93.593C7.28517 94.5344 6.87508 95.4089 6.46574 96.2857C6.11985 97.0266 6.447 97.676 6.66946 98.3424C6.8285 98.8189 7.3131 98.572 7.6208 98.7291C7.73357 98.7866 7.89785 98.7657 7.98832 98.8411C8.86347 99.5698 9.78337 99.3508 10.7158 98.9958C10.8158 98.9577 10.9242 98.9412 11.0292 98.9169C12.1477 98.6573 13.1825 98.6541 13.8507 99.8163C14.054 100.17 14.3336 100.239 14.7246 100.081C15.1701 99.9001 15.6615 99.8151 16.1028 100.065C16.4905 100.285 16.6766 100.104 16.9118 99.8363C17.9805 98.6183 18.3882 97.1289 18.6812 95.5929C19.1717 93.0223 19.2597 90.4171 19.337 87.8109C19.3434 87.5958 19.2438 87.3318 19.5142 87.1731C19.8053 87.3292 19.7646 87.61 19.78 87.8546C19.8057 88.2632 19.7778 88.6762 19.8204 89.0824C20.1 91.7446 19.9619 94.3676 19.2265 96.9582C18.8935 98.1309 18.3531 99.2057 17.848 100.299C17.6175 100.798 17.8123 100.993 18.2559 101.156C18.5513 101.265 18.7519 101.14 18.9759 101.01C19.3809 100.776 19.8292 100.586 20.2654 100.821C21.3768 101.417 22.3817 101.258 23.4213 100.608C24.2091 100.115 25.0729 99.7505 26.0448 100.184C26.6555 100.457 26.8892 100.144 26.997 99.5697C27.1943 98.5181 27.0926 97.462 27.0752 96.41C27.0481 94.7741 26.7301 93.1754 26.3861 91.5781C25.2688 91.8773 25.2605 91.8829 24.5955 90.8942C24.2107 90.3221 23.8354 89.7412 23.4971 89.1411C23.1794 88.5774 22.7725 88.1283 22.1842 87.8511C20.9402 87.2651 19.9988 86.3415 19.2129 85.2304C18.8025 84.6502 18.3478 84.1008 17.9021 83.5465C17.7729 83.3859 17.6884 83.163 17.3147 83.1054C16.8629 84.1419 16.134 85.0761 16.0207 86.3086C15.8986 87.636 15.8289 88.9862 15.5169 90.2732C15.1684 91.7111 14.5774 93.0907 14.0795 94.4912C14.0241 94.6471 14.0266 94.8953 13.7507 94.889C13.6204 94.7194 13.6957 94.5527 13.7383 94.3895C13.9723 93.4934 14.219 92.6004 14.4417 91.7015C14.7326 90.527 14.9006 89.3575 14.7381 88.1248C14.5362 86.5931 14.3654 85.0418 14.8192 83.5059C14.9894 82.9298 15.0956 82.332 15.1936 81.7379C15.3512 80.7836 14.8643 80.0206 13.9138 79.8217C13.3729 79.7084 12.9624 79.4563 12.6515 79.0196C12.6515 79.0196 12.6918 78.98 12.7732 78.9632ZM36.2633 91.436C36.034 91.2086 35.7847 90.9978 35.5786 90.751C34.5208 89.4846 33.1849 88.9896 31.5603 89.2658C31.5181 89.273 31.4744 89.273 31.4314 89.2735C31.0709 89.2781 30.7515 89.4086 30.4855 89.6383C29.3876 90.5863 28.5021 91.6896 28.2013 93.1451C27.719 95.4795 27.8386 97.8046 28.4208 100.11C28.4451 100.206 28.4565 100.329 28.6573 100.337C29.0304 100.009 29.452 99.6732 29.8324 99.2963C30.8148 98.3231 31.928 97.7453 33.359 98.0172C33.7574 98.0929 34.0482 97.9095 34.3261 97.6295C35.1694 96.7798 35.9429 95.8502 37.211 95.5532C37.6688 95.446 38.134 95.5195 38.663 95.3914C37.9783 93.9894 37.4132 92.5941 36.2633 91.436ZM87.9138 93.423C86.7668 93.8949 85.6198 94.3667 84.4728 94.8386C84.9782 94.7924 85.4639 94.6983 85.9444 94.5829C89.1741 93.8071 92.3189 92.7621 95.4234 91.5889C100.536 89.6569 105.339 87.2 109.467 83.5363C111.86 81.4127 113.823 78.0883 114.138 75.2664C113.65 76.6886 113.034 77.9212 112.361 79.1221C110.354 82.7003 107.646 85.422 103.46 86.3068C100.192 86.9976 97.2883 88.555 94.3657 90.0857C92.2501 91.1937 90.2538 92.5339 87.9138 93.423ZM28.1637 101.861C27.4366 101.173 26.5074 101.113 25.5848 101.031C24.7849 100.96 24.2077 101.297 23.8442 101.998C23.1769 103.287 23.0133 104.632 23.3995 106.042C23.6602 106.993 23.6493 106.991 24.6045 106.774C25.1197 106.657 25.6178 106.324 26.1666 106.537C27.1006 106.899 27.8523 106.482 28.5668 105.99C29.0845 105.634 29.3718 105.134 29.2986 104.447C29.1967 103.49 28.7705 102.689 28.1637 101.861ZM13.7932 103.027C13.5497 102.106 12.9366 101.458 12.2192 100.882C11.8804 100.61 11.5848 100.616 11.3569 100.993C10.6418 102.177 9.671 103.239 9.66491 104.755C9.66269 105.309 9.53666 105.863 9.45445 106.416C9.41944 106.651 9.49906 106.824 9.64518 107.003C10.066 107.517 10.5565 107.838 11.2598 107.72C12.0228 107.591 12.9618 107.808 13.393 106.948C13.9953 105.745 14.3808 104.474 13.7932 103.027ZM9.78631 58.8107C9.96373 58.1179 9.3474 58.2409 9.02991 58.1314C8.70062 58.018 8.69241 58.3205 8.66141 58.5708C8.41825 60.5342 7.80398 62.3349 6.31182 63.7279C5.33682 64.6381 4.34577 65.531 3.3668 66.437C3.19492 66.5961 2.99187 66.7555 2.89741 66.9586C2.32825 68.1822 2.98448 70.1277 4.22044 70.8793C5.45025 69.6367 6.11835 68.0988 6.52058 66.4263C6.70654 65.6531 6.79763 64.8239 7.28469 64.1858C8.49698 62.5978 9.20103 60.7883 9.78631 58.8107ZM35.0784 98.8664C34.9904 100.035 35.3052 101.119 35.7599 102.176C35.8627 102.415 36.0532 102.531 36.2883 102.61C37.8442 103.132 39.1765 102.266 39.31 100.643C39.3206 100.515 39.3485 100.387 39.3509 100.258C39.3699 99.2505 39.5268 98.2422 39.3065 97.2358C39.2104 96.7969 38.9888 96.6099 38.5308 96.6956C37.1295 96.9581 35.7988 97.3283 35.0784 98.8664ZM34.3767 101.084C33.9839 100.595 33.5972 100.058 32.8936 100.072C32.2504 100.085 31.6097 100.221 31.0035 100.442C30.0786 100.78 29.6613 101.558 29.8853 102.522C30.0358 103.169 30.2275 103.807 30.4249 104.442C30.6856 105.281 31.1052 105.437 31.8882 105.022C32.7225 104.58 33.5575 104.151 34.4902 103.927C35.3205 103.728 35.6293 102.824 35.1445 102.153C34.9053 101.822 34.6695 101.489 34.3767 101.084ZM23.3945 108.196C22.7502 108.58 22.5957 109.046 22.8196 110.033C22.9125 110.442 22.9402 110.907 23.4745 111.044C24.9764 111.429 26.4624 111.834 27.9406 110.902C28.5237 110.535 29.0166 109.462 28.764 108.816C28.7031 108.661 28.592 108.57 28.4452 108.522C26.8229 107.988 25.1922 107.56 23.3945 108.196ZM15.6029 102.227C15.4583 102.44 15.3343 102.671 15.1654 102.863C14.256 103.895 14.6034 105.072 14.7598 106.228C14.7818 106.39 14.899 106.482 15.0269 106.571C15.9045 107.183 17.1714 107.073 17.7233 106.176C18.7314 104.538 19.0013 103.81 17.5635 102.367C17.4726 102.276 17.3845 102.181 17.2915 102.092C16.5878 101.418 16.3172 101.429 15.6029 102.227ZM7.18938 101.571C6.48432 103.109 6.45012 104.784 6.20424 106.415C6.14048 106.837 6.76498 107.48 7.25868 107.563C7.81251 107.657 8.30395 107.431 8.48105 106.932C8.83184 105.944 9.19138 104.942 9.24565 103.88C9.28208 103.167 9.11358 102.467 8.95957 101.773C8.8284 101.182 8.33755 101.047 7.84063 100.953C7.4365 100.876 7.3418 101.2 7.18938 101.571ZM30.724 109.189C30.9165 109.21 31.1096 109.253 31.3013 109.247C31.9665 109.228 32.6644 109.417 33.2907 109.181C34.4264 108.753 35.0096 107.47 34.7083 106.277C34.5206 105.534 34.2967 105.406 33.564 105.667C32.8935 105.905 32.2282 106.186 31.51 106.201C30.7688 106.217 30.2737 106.539 30.0311 107.223C29.768 107.965 29.9771 108.603 30.724 109.189ZM16.8058 112.119C17.1417 111.726 17.4735 111.33 17.8151 110.941C17.9997 110.732 18.0683 110.495 18.031 110.224C17.9574 109.691 17.8784 109.158 17.8039 108.625C17.7545 108.271 17.5213 108.097 17.2142 108.223C16.4326 108.545 15.6927 108.414 14.9535 108.118C14.5558 107.959 14.3609 108.105 14.2419 108.497C13.8705 109.718 14.0945 110.834 14.8123 111.862C15.3079 112.572 16.1656 112.708 16.8058 112.119ZM21.4792 106.677C22.0646 105.954 22.0049 105.015 22.3058 104.195C22.54 103.556 22.1643 102.86 21.5267 102.655C20.0554 102.181 19.2745 102.646 19.0194 104.42C18.9374 104.99 19.1073 105.584 19.092 106.152C19.0643 107.178 19.4178 107.274 20.4565 107.223C20.8481 107.203 21.1489 107.015 21.4792 106.677ZM18.8966 111.09C19.5668 111.98 20.8294 112.102 21.4712 111.34C21.9861 110.728 22.1309 109.129 21.7465 108.399C21.6114 108.143 21.426 108.183 21.2015 108.248C20.8112 108.36 20.4183 108.498 20.0181 108.535C18.7693 108.652 18.7407 108.66 18.7323 109.914C18.7299 110.277 18.7252 110.644 18.8966 111.09ZM37.3802 103.77C36.3144 104.05 35.6532 104.977 35.6975 106.129C35.727 106.896 35.896 107.038 36.6538 107.084C37.1455 107.114 37.5115 106.998 37.825 106.589C38.2028 106.096 38.6259 105.631 39.0737 105.199C39.4221 104.864 39.3596 104.542 39.232 104.149C39.0955 103.728 38.7874 103.747 38.4597 103.752C38.1372 103.758 37.8147 103.76 37.3802 103.77ZM12.693 112.513C12.9355 112.279 13.2921 112.127 13.3564 111.758C13.5112 110.871 13.2655 110.062 12.8003 109.312C12.6714 109.104 12.4857 109.062 12.2433 109.136C11.247 109.441 10.7373 110.454 11.1065 111.439C11.204 111.699 11.3205 111.953 11.4406 112.204C11.7788 112.91 11.8978 112.945 12.693 112.513ZM8.4717 111.212C8.83677 111.572 9.32356 111.627 9.7873 111.676C10.0876 111.708 10.4819 111.56 10.3417 111.173C10.0716 110.427 9.79594 109.667 9.32625 109.017C9.06409 108.654 8.63485 108.584 8.21106 108.697C7.81101 108.803 7.80603 109.19 7.78849 109.492C7.75211 110.12 8.03934 110.653 8.4717 111.212ZM5.7557 101.682C5.68105 102.701 5.60641 103.72 5.53176 104.739C6.21616 103.379 6.48353 101.985 6.02794 100.525C5.77189 100.847 5.83212 101.218 5.7557 101.682ZM10.3246 87.7454C10.3412 87.706 10.3675 87.6675 10.3716 87.6268C10.3751 87.5915 10.3534 87.5537 10.3325 87.4809C9.66769 88.2464 8.9937 88.9767 8.07485 89.4225C9.24991 89.4756 9.83511 88.7332 10.3246 87.7454ZM9.18645 113.601C9.23445 113.799 9.28246 113.997 9.33046 114.195C9.21553 113.625 9.3666 112.993 8.97415 112.489C8.86999 112.863 9.10331 113.167 9.18645 113.601Z" stroke="#A4A4A4" stroke-width="2" mask="url(#path-1-outside-1_3_14)"/>
</svg>
